<?xml version="1.0" encoding="UTF-8"?>
<svg version="1.1" viewBox="0 0 1600 1536" width="1280" height="1280" xmlns="http://www.w3.org/2000/svg">
<path transform="translate(1262 193)" d="m0 0c7.57 6.11 14.5 12.8 19.1 21.4 0.429 0.77 0.859 1.54 1.3 2.33 2.75 5.15 4.58 10.2 5.93 15.8 0.803 2.94 1.85 5.75 2.94 8.59 1.88 5.07 3.48 10.2 5.14 15.4 1.67 5.09 3.54 9.99 5.78 14.9 1.2 2.62 2.27 5.28 3.35 7.94 2.28 5.49 4.85 10.8 7.56 16.1 2 3.98 3.99 7.97 5.96 12 3.52 7.1 7.09 14.2 11 21 0.37 0.668 0.74 1.34 1.12 2.02 1.46 2.62 2.75 4.85 4.88 6.98 1.76 2.7 3.45 5.44 5.15 8.18 1.81 2.76 3.77 5.27 5.85 7.82 1.34 1.99 2.68 3.99 4 6 1.8 2.52 3.6 5.03 5.41 7.54 1.59 2.46 1.59 2.46 2.61 5.21 0.322 0.744 0.645 1.49 0.977 2.25 0.99 0.33 1.98 0.66 3 1v2l2 1c0.83 1.2 1.61 2.44 2.38 3.69 3.29 5.07 7.13 9.53 11.1 14.1 5.06 5.82 9.86 11.8 14.6 17.9 3.45 4.37 6.92 8.45 10.9 12.3 3.53 3.84 7.05 7.7 10.4 11.7 5.04 5.9 10.5 11.4 16 16.8 1.6 1.6 3.2 3.2 4.8 4.8 6.25 6.27 6.25 6.27 12.8 12.2 2.41 2.03 4.32 3.93 6.27 6.38 3.35 3.96 7.15 6.94 11.2 10.1 3.06 2.55 5.55 5.38 8.06 8.46 1.31 1.69 1.31 1.69 3.38 2.57 0.33 0.99 0.66 1.98 1 3 1.62 1.71 3.3 3.37 5 5 4.29 4.18 8.33 8.48 12.2 13 1.75 1.97 3.57 3.82 5.45 5.67 2.67 2.63 5.04 5.33 7.31 8.31 0.619 0.763 1.24 1.53 1.88 2.31 2.78 3.51 5.47 7.08 8.12 10.7 0.385 0.523 0.771 1.05 1.17 1.59 9.06 12.4 9.06 12.4 12.6 19.1 1.48 2.79 3.1 5.49 4.71 8.21 6.58 11.2 11.5 22.7 15.5 35.1 0.499 1.48 0.999 2.96 1.5 4.44 3.01 9.08 5.75 18.1 7.79 27.5 0.5 2.16 1.07 4.3 1.7 6.43 1.3 4.69 2.12 9.41 2.96 14.2 0.369 3.51 0.369 3.51 2.06 6.43 0.347 2.1 0.637 4.2 0.902 6.31l0.51 3.96c0.176 1.39 0.351 2.78 0.525 4.17 1.25 10.4 1.25 10.4 3.12 20.7 1.26 5.92 1.6 11.9 2 17.9 0.153 2.24 0.311 4.48 0.473 6.72 0.0658 0.978 0.132 1.96 0.199 2.97 0.026 2.22 0.026 2.22 1.27 3.25 0.0716 2.33-0.00355 4.64-0.0625 6.97-0.17 2.03-0.17 2.03 1.06 3.03 0.0975 1.35 0.126 2.71 0.127 4.06 0.00423 1.31 0.00423 1.31 0.00854 2.65-0.00202 0.967-0.00405 1.93-0.00613 2.93 0.00175 1.01 0.0035 2.03 0.00531 3.07 0.00442 3.37 0.00148 6.73-0.00189 10.1 6.73e-4 2.33 0.00164 4.66 0.0029 6.98 0.00148 4.89-6.78e-4 9.77-0.00534 14.7-0.0057 6.28-0.00242 12.6 0.00357 18.8 0.0036 4.81 0.00247 9.62-1.28e-4 14.4-6.69e-4 2.32 1.6e-4 4.63 0.00248 6.95 0.00253 3.23-0.00131 6.46-0.0069 9.69 0.00304 1.45 0.00304 1.45 0.00613 2.93-0.00282 0.875-0.00564 1.75-0.00854 2.65-3.77e-4 0.765-7.54e-4 1.53-0.00114 2.32-0.126 1.74-0.126 1.74-1.13 2.74-0.351 2.99-0.645 5.97-0.902 8.97-0.17 1.87-0.34 3.74-0.51 5.61-0.263 2.95-0.524 5.9-0.783 8.85-0.252 2.85-0.51 5.69-0.77 8.54-0.074 0.869-0.148 1.74-0.224 2.63-0.451 4.92-1.22 9.61-2.35 14.4-0.555 2.4-0.924 4.8-1.24 7.24-0.18 1.34-0.18 1.34-0.363 2.7-0.238 1.83-0.475 3.66-0.711 5.48-0.645 4.77-1.61 8.98-3.14 13.6-0.763 3.8-1.38 7.62-2 11.4-1.03 6.32-2.14 12.4-4 18.6-0.525 2.52-0.985 5.04-1.44 7.57-0.562 2.43-0.562 2.43-1.5 4.72-1.4 3.58-2.17 7.22-3 11-1.2 5.27-2.47 10.4-4.28 15.5-1 2.87-1.89 5.76-2.78 8.67-0.342 1.11-0.683 2.22-1.04 3.37-0.585 1.94-1.16 3.88-1.71 5.83-1.61 5.65-3.69 11-6 16.4-1.56 3.74-2.93 7.54-4.29 11.4-1.25 3.43-2.6 6.82-3.98 10.2-0.64 1.58-1.27 3.17-1.88 4.77-2.76 7.12-6.01 14-9.27 20.9-1.15 2.46-2.28 4.93-3.4 7.4-12.4 27.5-27 53.3-42.9 78.9-1.51 2.39-1.51 2.39-2.53 4.51h-2c-0.278 0.744-0.557 1.49-0.844 2.25-3.17 7.52-8.8 14.1-13.6 20.7-0.612 0.85-0.612 0.85-1.24 1.72-0.397 0.551-0.795 1.1-1.2 1.67-1.17 1.67-2.25 3.37-3.34 5.09-0.601 0.849-1.2 1.7-1.82 2.57h-2c-0.247 0.709-0.495 1.42-0.75 2.15-1.4 3.2-3.16 5.69-5.25 8.48-2.06 2.77-4.09 5.51-6 8.38h-2c-0.0825 0.578-0.165 1.16-0.25 1.75-0.961 2.88-2.55 4.19-4.75 6.25-0.66 0.99-1.32 1.98-2 3h-2c-0.257 0.565-0.513 1.13-0.777 1.71-4.45 8.33-11.9 15.4-18.2 22.3-1.71 1.87-3.42 3.75-5.12 5.62-0.839 0.92-1.68 1.84-2.54 2.79-1.96 2.17-3.87 4.37-5.77 6.59-3.01 3.45-6.16 6.74-9.38 10-0.481 0.494-0.961 0.987-1.46 1.5-1.2 1.21-2.46 2.36-3.73 3.5h-2v2c-1.22 1.23-1.22 1.23-3.06 2.75-2.99 2.53-5.89 5.13-8.74 7.82-0.67 0.634-1.34 1.27-2.03 1.92-1.36 1.29-2.71 2.58-4.06 3.88-0.63 0.597-1.26 1.19-1.91 1.81-0.567 0.542-1.13 1.08-1.72 1.64-1.48 1.17-1.48 1.17-3.48 1.17-0.33 0.99-0.66 1.98-1 3-1.93 1.73-1.93 1.73-4.44 3.62-3.75 2.91-7.32 5.91-10.8 9.12-3.42 3.12-6.84 5.76-10.8 8.25-3.16 2.41-5.77 4.66-8 8-4.44 3-4.44 3-7 3v2c-1.84 1.45-1.84 1.45-4.38 3.12-3.59 2.44-7.02 4.94-10.4 7.69-15.5 12.6-32.6 23.4-49.5 34.1-1.21 0.769-2.42 1.54-3.63 2.31-9.7 6.21-19.6 12-29.7 17.5-2.52 1.38-5.04 2.77-7.55 4.17-76.9 42.6-162 72.5-252 88.2-1.22 0.21-2.44 0.42-3.69 0.637-21.2 3.61-42.5 6.14-63.9 8.14-2.33 0.221-4.66 0.453-6.98 0.689-84.2 8.47-172 2.15-386-60.5-1.62-0.686-3.23-1.37-4.85-2.05-1.82-0.773-3.64-1.55-5.46-2.32-1.24-0.527-1.24-0.527-2.51-1.06-12.4-5.28-24.4-11.1-36.5-17.1-1.91-0.952-3.81-1.9-5.72-2.84-6.81-3.39-13.4-6.98-20-10.9-3.24-1.85-6.55-3.5-9.91-5.14-7.28-3.59-14.2-7.69-21.1-12-1.24-0.761-2.48-1.52-3.72-2.28-1.82-1.12-3.65-2.24-5.47-3.36-3.74-2.3-7.49-4.55-11.3-6.78-26.9-15.8-53.4-34.5-76.6-55.2-6.47-5.76-13.2-11.2-20-16.5-1.38-1.11-2.71-2.27-4.03-3.45v-2c-0.586-0.259-1.17-0.518-1.77-0.784-2.39-1.31-3.94-2.71-5.83-4.66-1.01-1.03-1.01-1.03-2.04-2.07-0.694-0.715-1.39-1.43-2.1-2.17-4.61-4.73-9.28-9.28-14.3-13.6-3.28-2.88-6.37-5.95-9.46-9.04l-1.91-1.88-1.8-1.8c-0.803-0.797-0.803-0.797-1.62-1.61-1.16-1.4-1.16-1.4-1.16-3.4h-2c-1.55-1.57-1.55-1.57-3.31-3.69-2.12-2.51-4.24-4.92-6.62-7.19-2.06-2.12-2.06-2.12-2.06-4.12h-2c-1.25-1.41-2.42-2.88-3.56-4.38-2.86-3.67-5.79-7.19-8.94-10.6-4.4-4.83-8.46-9.87-12.5-15-1.29-1.6-2.58-3.21-3.88-4.81-8.38-10.5-16.3-21.2-23.8-32.3-1.84-2.69-3.72-5.34-5.6-8-4.12-5.95-8.04-12-11.9-18.1-0.591-0.923-1.18-1.85-1.79-2.8-3.1-4.88-6.04-9.8-8.81-14.9-1.07-1.94-2.18-3.83-3.33-5.73-7.36-12.1-13.8-24.7-20.3-37.3-1.24-2.43-2.49-4.85-3.75-7.28-4.49-8.72-8.52-17.7-12.5-26.6-0.421-0.938-0.421-0.938-0.851-1.89-3.3-7.35-6.49-14.7-9.4-22.2-0.443-1.14-0.887-2.29-1.34-3.47-0.382-1-0.763-2-1.16-3.03-1.45-3.79-2.94-7.56-4.5-11.3-2.3-5.69-4.05-11.6-5.84-17.4-0.898-2.91-1.84-5.78-2.85-8.64-1.33-3.89-2.1-7.81-2.79-11.9-0.424-2.25-0.424-2.25-1.49-4.09-1.75-3.67-2.19-7.71-2.89-11.7-0.696-3.82-0.696-3.82-2.14-7.41-1.66-3.41-2.03-7.11-2.63-10.8-0.134-0.793-0.268-1.59-0.406-2.4-0.329-1.95-0.649-3.9-0.969-5.85h-1l-4-24h-1c-0.116-0.959-0.232-1.92-0.351-2.91-0.431-3.55-0.866-7.1-1.3-10.7-0.189-1.54-0.376-3.08-0.562-4.62-0.267-2.21-0.539-4.42-0.812-6.63-0.124-1.03-0.124-1.03-0.249-2.09-0.437-3.67-0.437-3.67-1.72-7.11-0.53-4.92-0.773-9.87-1.06-14.8-0.0442-0.75-0.0884-1.5-0.134-2.27-1.67-29.1-3.47-60.8 2.7-89.5 1.01-4.96 1.61-9.99 2.26-15 0.709-5.03 1.84-9.62 3.53-14.4 0.868-2.49 1.48-5 2.07-7.56 1.69-6.94 3.84-13.7 6.01-20.5 0.924-2.93 1.8-5.88 2.68-8.82 1.42-4.62 3.03-9.09 4.89-13.6 1.17-2.87 2.23-5.78 3.3-8.7 2.79-7.29 6.27-14.2 9.83-21.1 1.21-2.37 2.37-4.77 3.54-7.17 2.53-5.04 5.4-9.84 8.38-14.6 0.57-0.922 1.14-1.84 1.73-2.79 3.52-5.62 7.23-11 11.3-16.2 0.98-1.33 1.96-2.67 2.94-4 2.66-3.55 5.52-6.88 8.47-10.2 1.28-1.46 2.51-2.97 3.72-4.5 2.13-2.63 4.47-4.92 6.88-7.31 1.16-1.18 2.32-2.37 3.48-3.55 1.24-1.25 2.47-2.51 3.71-3.76 0.628-0.645 1.26-1.29 1.9-1.96 0.904-0.914 0.904-0.914 1.83-1.85 0.816-0.832 0.816-0.832 1.65-1.68 1.43-1.21 1.43-1.21 3.43-1.21-0.605 3.45-1.49 6.51-2.81 9.75-0.528 1.29-0.528 1.29-1.07 2.6-1.65 3.91-3.37 7.79-5.12 11.6h-2c-0.182 0.641-0.364 1.28-0.551 1.94-0.251 0.865-0.503 1.73-0.762 2.62l-0.738 2.57c-1.12 3.39-2.54 6.59-3.95 9.87-1.03 2.69-1.99 5.41-2.94 8.12-0.261 0.745-0.522 1.49-0.791 2.26-13.6 39.2-15.7 78.5-11.3 120 0.126 1.19 0.126 1.19 0.254 2.41 0.123 3.6 0.123 3.6 1.75 6.59 0.66 3.52 1.24 7.03 1.81 10.6 0.681 4.09 1.6 7.59 3.19 11.4 0.915 3.47 1.65 6.99 2.41 10.5 0.974 4.33 2.2 8.4 3.82 12.5 0.762 1.97 1.45 3.95 2.12 5.95 3.28 9.68 7.12 18.9 11.6 28 0.659 1.36 1.32 2.71 1.98 4.07 6.22 13.9 6.22 13.9 15 25.9 1.77 2.96 3.46 5.96 5.15 8.96 2.27 3.73 4.77 6.96 7.85 10 1.3 2.08 2.54 4.2 3.78 6.32 0.402 0.554 0.804 1.11 1.22 1.68h2c0.227 0.722 0.454 1.44 0.688 2.19 1.58 3.39 3.61 5.24 6.31 7.81 1.67 2 3.34 4 5 6l1.94 1.94c1.72 1.72 3.26 3.45 4.81 5.31 5.03 5.9 10.2 11.3 16.7 15.6 2.46 1.77 4.46 3.97 6.58 6.14 4.66 4.48 4.66 4.48 10 8v2c0.763 0.268 1.53 0.536 2.31 0.812 2.69 1.19 3.66 2.15 5.69 4.19 1.52 1.13 3.06 2.24 4.62 3.31 1.19 0.83 1.19 0.83 2.41 1.68l2.96 2.01c0.64 0.438 1.28 0.877 1.94 1.33 9.1 6.16 18.6 11.6 28.2 17 1.72 0.987 3.45 1.98 5.17 2.98 52.2 30.2 115 41.1 175 42.6 2.11 0.0542 4.22 0.115 6.33 0.177 31.4 0.863 62.6-1.68 93-9.89 5.27-1.42 10.3-2.23 15.7-2.23 1.85 1.68 1.85 1.68 3.62 3.88 0.59 0.719 1.18 1.44 1.79 2.18 0.523 0.642 1.05 1.28 1.59 1.95 0.66 0.66 1.32 1.32 2 2 0.878 1.06 1.75 2.12 2.62 3.19 2.87 3.38 6.04 6.18 9.42 9.04 2.49 2.26 4.56 4.75 6.63 7.39 1.39 1.66 1.39 1.66 4.32 2.38 2.39 2.19 4.53 4.43 6.6 6.93 3.52 4.24 6.78 7.18 11.6 9.92 2.67 1.66 4.66 3.9 6.84 6.15 1.09 0.722 2.19 1.44 3.31 2.19l2.69 1.81v2c0.722 0.206 1.44 0.412 2.19 0.625 3.78 1.85 5.34 3.98 7.81 7.38v2c-16.9 6.25-34.4 9.55-52.2 11.7-1.91 0.234-1.91 0.234-3.82 1.31-3.6 0.318-7.2 0.512-10.8 0.719-3.08 0.0755-3.08 0.0755-5.19 1.28-2.82 0.215-5.62 0.377-8.44 0.5-0.836 0.0406-1.67 0.0812-2.53 0.123-3.58 0.174-7.17 0.337-10.8 0.502-2.61 0.121-5.23 0.248-7.84 0.375-0.815 0.0354-1.63 0.0709-2.47 0.107-4.12 0.111-4.12 0.111-7.97 1.39-2.37 0.098-4.75 0.131-7.12 0.133-0.703 9.57e-4 -1.41 0.00191-2.13 0.0029-1.49 6.81e-4 -2.97-0.00117-4.46-0.00534-2.28-0.00535-4.56-5.14e-5 -6.83 0.00635-1.44-6.61e-4 -2.89-0.00194-4.33-0.00391-1.32-0.00113-2.63-0.00226-3.99-0.00342-3.13-0.129-3.13-0.129-5.13-1.13-2.57-0.215-5.11-0.377-7.68-0.5-0.77-0.0406-1.54-0.0812-2.33-0.123-2.47-0.13-4.95-0.254-7.42-0.377-29-1.47-29-1.47-30.6-3-2.39-0.349-4.77-0.643-7.18-0.902-1.48-0.17-2.96-0.34-4.45-0.51-2.34-0.264-4.69-0.525-7.03-0.783-2.26-0.25-4.51-0.509-6.77-0.77-0.698-0.074-1.4-0.148-2.12-0.224-3.58-0.418-6.31-1.07-9.46-2.81-1.47-0.385-2.96-0.716-4.45-1-0.849-0.165-1.7-0.33-2.57-0.5-0.88-0.165-1.76-0.33-2.67-0.5-17.6-3.38-17.6-3.38-25.3-6-2.54-0.644-5.08-1.27-7.62-1.88-16.1-3.94-16.1-3.94-23.2-7.56-4.53-2.22-9.24-3.72-14-5.32-4.08-1.39-7.51-2.98-11.2-5.25-2.87-1.36-5.78-2.61-8.69-3.88-9.74-4.28-19.1-9-28.5-14-4.27-2.29-8.58-4.46-12.9-6.58-7.98-3.95-15.5-8.56-22.9-13.5v-2c-0.804-0.268-1.61-0.536-2.44-0.812-1.27-0.588-1.27-0.588-2.56-1.19l-1-3c-2.64-0.33-5.28-0.66-8-1l-1 3c1.68 2.59 1.68 2.59 4.06 5.25 0.835 0.98 1.67 1.96 2.53 2.97 0.794 0.918 1.59 1.84 2.41 2.78 0.82 1.01 0.82 1.01 1.66 2.03 3.13 3.82 6.58 6.96 10.3 10.2 2.02 1.83 3.75 3.74 5.5 5.82 2.96 3.49 6.17 6.45 9.65 9.41 3.24 2.79 6.16 5.87 9.1 8.96 3.02 2.89 6.23 5.37 9.57 7.88 2.23 1.78 4.18 3.71 6.18 5.75 3.31 3.02 6.65 5.85 10.4 8.25l2.56 1.75v2c0.784 0.309 1.57 0.619 2.38 0.938 2.63 1.06 2.63 1.06 4.62 2.06v2c0.71 0.25 1.42 0.5 2.15 0.758 3.16 1.38 5.62 3.09 8.41 5.12 14.8 10.5 30.8 19.1 46.7 27.7 2.62 1.41 5.22 2.84 7.82 4.27 13.8 7.55 28.2 13.5 42.9 19.2 0.858 0.34 1.72 0.68 2.6 1.03 14.5 5.74 29.4 9.9 44.4 14 1.01 0.277 2.02 0.555 3.07 0.84 44 12 89.3 16.6 135 16.5 2.97-0.00463 5.94 0.00231 8.91 0.0205 36.7 0.222 72.4-3.93 108-12.6 5.9-1.41 11.8-2.71 17.8-4.01 8.22-1.84 16.2-4.3 24.2-6.99 2.22-0.749 4.45-1.48 6.68-2.21 7.95-2.61 15.8-5.33 23.5-8.54 6.59-2.59 11.7-2.43 18.4-0.582 6.49 1.65 12.9 2.52 19.6 3.21 1.17 0.126 2.34 0.251 3.54 0.38 8.71 0.901 17.4 1.47 26.2 1.78 2.94 0.114 5.83 0.368 8.75 0.727 4.76 0.562 9.45 0.632 14.2 0.609 0.815 0.00387 1.63 0.00773 2.47 0.0117 4.41-0.00713 8.49-0.36 12.8-1.14 2.52-0.149 5.04-0.271 7.56-0.375 7.77-0.373 15.4-1.37 23-2.61 4.89-0.766 9.53-1.14 14.5-0.969 2.6-0.0639 4.62-0.864 6.92-2.05v2c-0.908 0.433-1.82 0.866-2.75 1.31-2.73 1.42-4.83 2.82-7.25 4.69-7.15 5.33-14.4 10.3-22 15-1.94 1.25-3.88 2.5-5.81 3.75-9.83 6.25-9.83 6.25-13.2 6.25v2c-4.46 1.49-4.46 1.49-9 3v2c-1.13 0.519-2.27 1.04-3.44 1.57-3.11 1.44-6.21 2.88-9.31 4.34-0.716 0.338-1.43 0.676-2.17 1.02-2.74 1.39-5.31 3-7.86 4.71-5.25 3.19-10.9 5.75-16.4 8.45-1.63 0.803-3.26 1.62-4.89 2.44-7.99 3.98-16 7.82-24.4 10.9-5 1.86-9.7 4.07-14.4 6.5-6.81 3.48-13.7 6.47-20.9 9.19-2.5 0.966-4.98 1.97-7.47 2.97-31.7 12.7-64.6 22.9-97.8 30.9-0.718 0.173-1.44 0.346-2.18 0.523-30.3 7.25-60.9 12.9-91.8 16.5-0.781 0.0923-1.56 0.185-2.37 0.28-5.54 0.651-11.1 1.2-16.6 1.72-0.881 0.0848-1.76 0.17-2.67 0.257-21.5 2.01-43 2.14-64.6 2.12-1.85 1.12e-4 -3.7 2.34e-4 -5.55 3.66e-4 -27.1-0.0144-54-0.656-81-4.1-2.1-0.268-4.2-0.524-6.3-0.777-21.1-2.59-42.2-6.36-62.9-11.5-0.33 1.65-0.66 3.3-1 5 0.829 0.258 1.66 0.516 2.51 0.781 3.88 1.35 7.57 3.01 11.3 4.72 40.8 18.3 83.3 31.1 127 39.5 1.54 0.308 3.09 0.616 4.63 0.926 13 2.53 26.2 3.73 39.4 5.07 0.929 0.0967 1.86 0.193 2.81 0.293 5.09 0.526 10.2 1 15.3 1.45 1.92 0.169 3.83 0.341 5.75 0.517 20.9 1.89 41.8 2.02 62.8 1.94 3.56-0.011 7.11-0.0105 10.7-0.00986 3.46-2.72e-4 6.92-0.00576 10.4-0.013 1.63-0.00315 3.27-0.00515 4.9-0.00589 2.27-0.00218 4.54-0.011 6.81-0.0216 1.28-0.00381 2.57-0.00762 3.89-0.0116 3.98-0.143 7.79-0.598 11.7-1.13 2.12-0.154 4.24-0.286 6.37-0.395 91.6-5.06 184-29.4 272-72.2 2.9-1.4 5.81-2.77 8.72-4.12 11.6-5.4 22.7-11.2 33.6-17.8 2.67-1.6 5.36-3.17 8.05-4.74 10.3-6.02 20.4-12.2 30.4-18.7 2.17-1.38 4.33-2.75 6.5-4.12 18.7-12 37.1-24.5 53.9-38.9 3.43-2.94 6.94-5.69 10.6-8.37 6.36-4.7 12.3-9.82 18.3-15 1.79-1.55 3.6-3.08 5.41-4.6 7.51-6.33 14.5-12.9 21.4-20 3.49-3.5 6.99-6.98 10.5-10.5 1.59-1.58 3.17-3.16 4.75-4.73 1.08-1.08 2.16-2.15 3.25-3.23 6.06-6.01 12-12.1 17.5-18.6 1.48-1.63 2.95-3.25 4.44-4.88 7.64-8.37 7.64-8.37 14-17.7 1.6-2.57 3.37-4.34 5.52-6.46 1.57-2 3.11-4.02 4.62-6.06 0.776-1.04 1.55-2.09 2.35-3.16 1.38-1.9 2.72-3.82 4.02-5.78h2c0.257-0.723 0.513-1.45 0.777-2.19 1.29-2.97 2.83-5.18 4.79-7.75 10.7-14.5 20.4-30.3 28.2-46.5 1.29-2.6 2.76-5.03 4.25-7.52 4.71-8.43 9.19-16.9 12.8-25.9 1.24-3.08 2.58-6.09 3.93-9.12 2.58-5.77 5.01-11.4 6.61-17.6 0.812-2.78 1.86-5.45 2.89-8.16 1.46-4.03 2.66-8.14 3.88-12.2 0.256-0.851 0.512-1.7 0.775-2.58 2.77-9.28 4.84-18.6 6.66-28.1 0.72-3.68 1.47-7.25 2.56-10.8 1.19-4.42 1.6-8.76 2-13.3 0.154-1.69 0.311-3.39 0.473-5.08 0.0658-0.741 0.132-1.48 0.199-2.25 0.265-1.86 0.265-1.86 1.27-3.86 0.14-1.51 0.225-3.02 0.281-4.54 0.0561-1.34 0.0561-1.34 0.113-2.7 0.0705-1.89 0.141-3.78 0.211-5.66 0.0374-0.89 0.0748-1.78 0.113-2.7 0.0454-1.23 0.0454-1.23 0.0918-2.48 0.189-1.92 0.189-1.92 1.19-2.92 0.0931-1.5 0.117-3.01 0.114-4.52-7.55e-5 -0.961-1.51e-4 -1.92-2.29e-4 -2.91-0.00516-1.04-0.0103-2.09-0.0156-3.17-0.00141-1.06-0.00283-2.13-0.00429-3.22-0.00562-3.41-0.0182-6.83-0.0309-10.2-0.00501-2.31-0.00958-4.62-0.0137-6.92-0.0111-5.67-0.0278-11.3-0.0488-17h-1c-1-10-2-20-3-30h-1c-0.166-0.87-0.166-0.87-0.335-1.76-0.508-2.64-1.02-5.29-1.54-7.93-0.261-1.37-0.261-1.37-0.527-2.76-0.865-4.4-1.82-8.41-3.6-12.5-0.508-1.95-0.986-3.91-1.44-5.88-1.14-4.68-2.55-8.76-4.56-13.1-1.82-4.61-3.47-9.28-5-14 0.99 0.33 1.98 0.66 3 1 1.19 2.56 1.19 2.56 2 5h2c0.889 1.32 1.77 2.64 2.61 3.98 1.73 2.52 3.67 4.81 5.64 7.14 16.8 20.3 16.8 20.3 16.8 26.9 0.99 0.33 1.98 0.66 3 1 1.08 1.96 2.06 3.97 3 6 0.742 1.32 1.49 2.63 2.25 3.94 8.04 14.4 14.7 30.1 19.1 46 0.654 2.3 0.654 2.3 2.11 5.52 1.55 3.62 2.66 7.21 3.75 11 0.665 2.24 1.4 4.44 2.18 6.64 3.53 10.5 5.84 21.3 7.17 32.3 0.12 2.52 0.12 2.52 1.39 3.6 1.95 14.2 2.32 28.3 2.26 42.6-0.0107 3.17-3.93e-5 6.34 0.0127 9.51 0.0251 38.3 0.0251 38.3-3.27 44.9-0.326 2.02-0.608 4.05-0.867 6.08-0.164 1.24-0.327 2.49-0.496 3.77-0.336 2.6-0.669 5.2-1 7.8-1.09 8.26-2.62 16.3-4.64 24.4-0.427 1.76-0.427 1.76-0.863 3.56-0.888 3.65-1.79 7.3-2.7 10.9-0.304 1.23-0.607 2.47-0.92 3.74-0.296 1.19-0.592 2.38-0.896 3.6-0.264 1.06-0.527 2.13-0.799 3.22-0.77 2.75-1.73 5.3-2.82 7.93-0.504 1.74-0.983 3.49-1.44 5.25-2.39 9.25-5.78 18.1-9.13 27.1-0.299 0.804-0.598 1.61-0.906 2.44-0.269 0.718-0.538 1.44-0.815 2.18-0.69 2-1.23 3.99-1.71 6.06 3.06-0.312 4.59-0.564 6.74-2.83 0.519-0.799 1.04-1.6 1.57-2.42 0.596-0.908 1.19-1.82 1.8-2.75 0.621-0.99 1.24-1.98 1.88-3 0.642-1.01 1.28-2.02 1.95-3.06 6.65-10.6 13-21.5 18.5-32.7 1.18-2.41 2.39-4.81 3.62-7.2 4.78-9.19 4.78-9.19 8.29-18.9 0.668-2.09 0.668-2.09 2.1-5.42 4.45-10.4 7.43-21.4 10.4-32.3 1.07-3.83 2.17-7.58 3.64-11.3 2.04-5.27 3.23-10.8 4.51-16.3 0.393-1.67 0.393-1.67 0.794-3.37 0.742-3.17 1.48-6.34 2.21-9.5 0.176-0.758 0.352-1.52 0.533-2.3 2.82-12.2 4.53-24.4 5.22-36.9 0.246-2.77 0.246-2.77 1.25-4.77 0.0735-2.32 0.0784-4.63 0.0535-6.95-0.00639-0.716-0.0128-1.43-0.0194-2.17-0.0229-2.38-0.0535-4.76-0.0849-7.14-0.0192-1.66-0.0383-3.33-0.0572-4.99-0.0411-3.5-0.0863-7-0.134-10.5-0.06-4.44-0.107-8.88-0.151-13.3-0.0358-3.44-0.08-6.89-0.126-10.3-0.0208-1.63-0.0388-3.27-0.0537-4.9 1.01-17.3 1.01-17.3-3.43-32.7-0.103-1.2-0.206-2.39-0.312-3.62-0.57-5.69-2.11-11.1-3.64-16.6-0.94-3.42-1.79-6.84-2.61-10.3-1.09-4.41-2.53-8.37-4.44-12.5-0.591-1.49-1.17-2.98-1.75-4.47-5.8-14.6-13-28.7-20.7-42.3-0.492-0.862-0.984-1.72-1.49-2.61-2.42-4.16-4.98-7.89-8.01-11.6v-2h-2c-1.55-1.72-1.55-1.72-3.31-4.06-0.626-0.824-1.25-1.65-1.9-2.5-1.46-1.99-2.85-4.01-4.23-6.07-2.37-3.35-5.18-5.86-8.33-8.48-2.47-2.09-4.81-4.3-7.17-6.52-3.81-3.46-7.54-6.05-12.2-8.3-1.91-1.07-1.91-1.07-3.26-2.48-3.17-3.07-7.24-4.92-11.1-7.03-0.899-0.494-1.8-0.989-2.72-1.5-6.5-3.51-12.7-6.05-19.8-8.06-0.762-0.336-1.52-0.673-2.31-1.02-3.54-1.29-7.09-1.7-10.8-2.11-0.756-0.0835-1.51-0.167-2.29-0.253-11.8-1.23-25.1-2.02-35.6 4.38-0.804 0.392-1.61 0.784-2.44 1.19-3.25 2.3-5.51 5.09-8.01 8.17-0.512 0.543-1.02 1.09-1.55 1.64h-2c-0.186 0.701-0.371 1.4-0.562 2.12-2.89 5.78-8.97 9.67-14.4 12.9-7.77 1.93-15.4 2.23-22.8-1.31-7.24-4.4-12.7-11.6-15.2-19.7-1.58-13 3.51-22.7 11-33 5.99-7.1 5.99-7.1 11-8v-2c11.4-6.88 22-11.5 35.1-14.2 0.835-0.176 1.67-0.351 2.53-0.532 7.63-1.49 14.7-1.77 22.4-0.218 0.94 0.186 1.88 0.371 2.85 0.562 0.69 0.144 1.38 0.289 2.09 0.438 0.0823-3.04-0.0239-5.07-1-8-0.99-0.33-1.98-0.66-3-1v-2c-0.726-0.271-1.45-0.541-2.2-0.82-2.73-1.15-5.1-2.49-7.61-4.05-17.4-10.5-35-16.3-55.3-16.4-1.26-0.0206-2.51-0.0412-3.8-0.0625-8.15-0.0338-15.3 0.935-23.1 3.31-0.839 0.244-1.68 0.487-2.54 0.738-11 3.28-20.9 10.2-29.5 17.7-3 2.56-3 2.56-5 2.56-0.266 0.736-0.531 1.47-0.805 2.23-1.18 2.74-2.52 4.72-4.32 7.08-9.29 13-17 29-17 45.2-0.00129 1.21-0.00258 2.42-0.00391 3.67 0.0058 1.88 0.0058 1.88 0.0117 3.8-0.00387 1.25-0.00773 2.5-0.0117 3.79-0.136 10.7-0.136 10.7 2.45 21.1 0.269 0.673 0.539 1.35 0.816 2.04 0.287 0.709 0.575 1.42 0.871 2.15 0.277 0.75 0.554 1.5 0.84 2.27 3.08 8.18 6.67 17.7 13.2 23.7 0.578 0.928 1.15 1.86 1.75 2.81 2.27 3.22 4.55 5.34 7.57 7.8 2.02 1.67 3.82 3.53 5.68 5.39l2 1v2c0.697 0.251 1.39 0.503 2.11 0.762 3.26 1.4 6.08 3.14 9.07 5.05 21.1 13.1 43.4 16.1 67.8 11.2 3.62-1.01 7.18-2.15 10.7-3.41 5.84-2.02 5.84-2.02 9.28-0.589 0.199 1.39 0.199 1.39 0.402 2.81 0.177 1.2 0.353 2.4 0.535 3.63 0.261 1.79 0.261 1.79 0.527 3.62 0.225 2.82 0.225 2.82 1.54 3.94 1.07 8.57 1.15 17.2 1.13 25.8 9.57e-4 1.16 0.00191 2.31 0.0029 3.5 6.74e-4 2.41-0.00113 4.83-0.00534 7.24-0.00542 3.71-6.32e-8 7.42 0.00635 11.1-6.6e-4 2.35-0.00194 4.71-0.00391 7.06 0.00304 1.67 0.00304 1.67 0.00613 3.37-0.00315 1.02-0.0063 2.04-0.00955 3.09-0.00119 1.35-0.00119 1.35-0.00241 2.73-0.127 2.04-0.127 2.04-1.13 3.04-0.336 2.21-0.614 4.42-0.867 6.64-0.165 1.4-0.331 2.79-0.496 4.19-0.255 2.19-0.507 4.38-0.756 6.57-0.963 8.41-2.15 16.6-4.2 24.8-0.667 2.71-1.23 5.42-1.75 8.15-0.772 3.95-1.8 7.76-2.94 11.6-0.753 3.01-1.49 6.02-2.22 9.04-0.803 3.05-1.75 5.99-2.78 8.96-0.248 0.721-0.496 1.44-0.751 2.19-6.9 20-6.9 20-10.2 27.8-0.264 0.62-0.527 1.24-0.799 1.88-4.58 10.7-9.64 21.1-15.2 31.4-0.81 1.48-1.6 2.98-2.39 4.47-2.62 4.89-5.65 9.36-8.87 13.9-2.38 3.38-4.53 6.9-6.7 10.4-1.27 2.07-2.57 4.03-4 6h-2c-0.244 0.727-0.487 1.45-0.738 2.2-1.42 3.14-3.08 5.06-5.45 7.55-3.68 3.96-7.06 8.02-10.3 12.3-1.41 1.78-2.89 3.32-4.51 4.91-1.81 2.11-3.6 4.23-5.38 6.36-0.802 0.814-0.802 0.814-1.62 1.64h-2c-0.33 1.32-0.66 2.64-1 4-0.619 0.0825-1.24 0.165-1.88 0.25-2.3 0.544-2.3 0.544-3.19 2.75-0.309 0.66-0.619 1.32-0.938 2-0.99 0.33-1.98 0.66-3 1-0.402 0.866-0.402 0.866-0.812 1.75-1.69 3.21-4.37 5.07-7.19 7.25-3.1 2.45-6.07 4.97-9 7.62-2.9 2.58-5.34 4.04-9 5.38-0.33 0.99-0.66 1.98-1 3-1.79 1.39-1.79 1.39-4.06 2.81-3.2 2.03-6.22 4.15-9.19 6.5-2.87 2.2-5.05 3.46-8.75 3.69-0.33 0.99-0.66 1.98-1 3-1.84 0.955-3.69 1.9-5.57 2.77-2.7 1.36-5.16 2.94-7.68 4.6-4.85 3.15-9.82 5.77-15 8.27-2.67 1.33-5.17 2.82-7.73 4.36-2.95 1.44-5.98 2.71-9 4-0.898 0.393-1.8 0.786-2.72 1.19-6.81 2.92-13.7 5.35-20.7 7.6-3.56 1.16-3.56 1.16-6.96 2.71-3.97 1.67-7.93 2.83-12.1 3.94-0.787 0.212-1.57 0.425-2.38 0.644-1.61 0.434-3.21 0.865-4.82 1.3-2.09 0.567-4.16 1.16-6.24 1.76-7.72 2.2-15.2 3.56-23.2 4.43-3.77 0.42-7.51 0.93-11.3 1.5-1.04 0.156-2.08 0.312-3.15 0.473-2.47 0.346-2.47 0.346-4.48 1.46-14 1.5-28.2 1.19-42.2 1.19-3.87 0.00218-7.74 0.0204-11.6 0.0393-19.5 0.0454-39-0.498-58.2-4.47-1.07-0.213-2.13-0.427-3.23-0.646-7.47-1.53-14.9-3.27-22.3-5.17-0.913-0.233-1.83-0.466-2.77-0.706-5.3-1.41-10.3-3.17-15.4-5.27-3.27-1.35-6.57-2.55-9.89-3.77-12.1-4.49-24.1-9.16-35.4-15.2-1.53-0.797-3.05-1.59-4.58-2.39-7.2-3.77-14.4-7.53-21.4-11.6v-2c-0.949-0.309-1.9-0.619-2.88-0.938-3.12-1.06-3.12-1.06-5.12-2.06v-2c-0.825-0.206-1.65-0.412-2.5-0.625-4.51-1.77-7.76-4.34-11.5-7.38l-2.57-2.08c-1.85-1.51-3.7-3.03-5.55-4.55-1.94-1.6-3.89-3.19-5.85-4.77-0.958-0.775-1.92-1.55-2.9-2.35-0.864-0.696-1.73-1.39-2.62-2.11-2.64-2.26-5.06-4.67-7.51-7.14-0.969-0.784-1.94-1.57-2.94-2.38-2.91-2.37-5.24-5.05-7.63-7.94-1.24-1.46-2.58-2.83-3.93-4.19-2.45-2.45-4.67-4.99-6.88-7.66-1.25-1.42-2.57-2.78-3.91-4.11-7.61-7.66-14.8-16-20.8-25-1.52-2.27-3.08-4.49-4.67-6.71-8.17-11.4-15.8-22.8-21.9-35.5-1.21-2.53-1.21-2.53-2.77-4.4-2.25-3.12-3.57-6.56-5.05-10.1-1.92-4.58-3.94-8.8-6.5-13.1-1.17-2.59-2.3-5.18-3.38-7.81-0.457-1.11-0.457-1.11-0.923-2.25-2.54-6.29-4.62-12.7-6.56-19.2-0.829-2.75-1.7-5.45-2.62-8.17-1.54-4.6-2.85-9.24-4.08-13.9-0.216-0.821-0.432-1.64-0.655-2.49-1.64-6.35-2.91-12.7-3.78-19.2h-1c-0.121-0.932-0.242-1.86-0.367-2.82l-0.508-3.86-0.492-3.76c-0.318-2.42-0.681-4.81-1.12-7.21-1.67-9.42-1.8-18.6-1.78-28.1-0.00135-1.69-0.0033-3.37-0.0058-5.06-0.00293-3.51 0.00127-7.02 0.0107-10.5 0.0114-4.48 0.0048-8.95-0.00714-13.4-0.00725-3.47-0.00491-6.95 2.56e-4 -10.4 0.00132-1.65-2.69e-4 -3.3-0.00496-4.95-0.0182-8.18 0.0665-15.9 2.27-23.8 0.215-2 0.389-4 0.5-6 0.313-4.29 0.879-8.29 1.9-12.5 0.779-3.31 1.4-6.64 2.04-9.98 1.64-8.25 4.04-16.1 6.75-24 1.02-3.2 1.92-6.44 2.82-9.68 1.37-4.85 2.9-9.31 5-13.9 0.681-1.86 0.681-1.86 1.38-3.75 5.01-13.5 11.7-26.8 19.2-39 2.26-3.68 4.32-7.47 6.39-11.3h2c0.204-0.801 0.407-1.6 0.617-2.43 1.84-4.77 4.58-8.6 7.51-12.8 0.585-0.842 1.17-1.68 1.77-2.55 3.76-5.4 7.56-10.8 11.5-16 1.43-1.96 2.78-3.95 4.12-5.97 2.42-3.44 5.46-5.96 8.73-8.57 1.85-1.55 1.85-1.55 2.7-3.57 1.51-2.96 3.67-4.8 6.07-7.11 1.18-1.18 2.35-2.37 3.52-3.56 1.28-1.29 2.57-2.59 3.85-3.88 0.634-0.643 1.27-1.29 1.92-1.95 8.69-8.74 8.69-8.74 12.7-11.6h2l1-3c2.07-1.8 4.13-3.47 6.31-5.12l1.92-1.47c1.3-0.998 2.6-1.99 3.91-2.98 1.66-1.27 3.32-2.54 4.97-3.82 18.7-14.3 39.5-26 60.9-35.7 1.73-0.785 3.45-1.59 5.16-2.39 12.5-5.84 25.4-10.6 39-13.4 7.96-1.96 15.1-6.6 21.9-11 15.9-9.94 35.2-16.6 53.2-21.6 1.81-0.48 1.81-0.48 3.71-1.51 0.656-2.53 0.656-2.53 1-5-0.9 0.308-1.8 0.616-2.73 0.934-5.44 1.55-11 1.75-16.6 2.13-14.5 0.905-14.5 0.905-28.6 3.94-2.58 0.507-5.16 0.988-7.75 1.44-6.53 1.17-12.9 2.66-19.2 4.56-0.354-4.46-0.354-4.46 1.2-6.83l1.69-1.69c0.93-0.938 0.93-0.938 1.88-1.89 0.673-0.646 1.35-1.29 2.04-1.96 0.689-0.67 1.38-1.34 2.09-2.03 5.3-5.05 10.6-9.13 17.1-12.6 1.37-0.756 2.74-1.51 4.11-2.27 7.44-4.06 14.9-7.99 22.9-10.7 1.16-0.409 2.33-0.817 3.53-1.24 8.86-3 17.7-4.83 26.9-6.18 3.4-0.368 3.4-0.368 5.57-1.58 4.43-0.388 8.87-0.478 13.3-0.625 0.662-0.0225 1.32-0.0449 2.01-0.0681 19.8-0.644 40.2-0.9 59.7 2.69-1.07 3.22-1.79 3.95-4.31 6.06l-1.8 1.54c-1.89 1.4-1.89 1.4-4.06 2.48-2.43 1.23-2.67 2.48-3.83 4.93-1.21 1.44-2.43 2.88-3.65 4.32-4.61 5.73-7.52 12-10 18.9-0.587 1.56-1.17 3.11-1.76 4.67-0.268 0.726-0.536 1.45-0.812 2.2-0.585 1.54-1.24 3.05-1.91 4.55-4.14 12 0.661 25.1 4.62 36.5 0.551 1.92 0.551 1.92 0.551 4.92h-2c-0.33 0.99-0.66 1.98-1 3-1.97 1.05-3.98 2.05-6 3l-3.25 2.19c-2.75 1.81-2.75 1.81-4.75 1.81-0.33 0.99-0.66 1.98-1 3-1.32 0.685-2.66 1.35-4 2-1.33 1.33-2.67 2.67-4 4-1.74 1.41-3.49 2.81-5.25 4.19-4.48 3.63-8.31 7.43-12 11.8-2.11 2.47-4.41 4.7-6.71 7-0.904 1.1-1.8 2.2-2.69 3.31-0.763 0.887-1.53 1.77-2.31 2.69h-2c-0.227 0.722-0.454 1.44-0.688 2.19-1.58 3.38-3.67 5.17-6.31 7.81-1.62 2.37-3.16 4.77-4.67 7.21-0.44 0.592-0.879 1.18-1.33 1.79h-2c-0.206 0.784-0.412 1.57-0.625 2.38-1.52 4.01-3.56 7.35-5.8 11-4.14 6.91-7.33 14.2-10.4 21.7-0.867 2.12-1.77 4.22-2.7 6.31-1.62 3.9-2.9 7.79-4.07 11.8-0.217 0.737-0.434 1.47-0.657 2.23-1.55 5.4-2.65 10.8-3.42 16.4-0.359 2.22-0.359 2.22-1.36 4.22-0.273 3.95-0.232 7.91-0.25 11.9-0.0206 1.08-0.0412 2.17-0.0625 3.28-0.0368 7.71 1.13 14.5 3.31 21.8 0.313 1.15 0.626 2.29 0.949 3.47 0.499 1.75 0.999 3.5 1.5 5.25 0.551 2.28 0.551 2.28 0.551 5.28-0.829-0.0314-0.829-0.0314-1.67-0.0635-12.5-0.408-23.4 0.29-35.3 4.06v2c-0.592 0.303-1.18 0.606-1.79 0.918-4.81 2.55-8.53 5-12.2 9.08-0.804 0.722-1.61 1.44-2.44 2.19-9.99 11-13.9 24.1-13.7 38.7 0.366 7.7 1.42 14 5.93 20.4 1.22 1.75 1.22 1.75 2.13 3.68 1.36 2.59 3.08 4.57 5.03 6.76 0.69 0.788 1.38 1.58 2.09 2.39 1.91 2.15 1.91 2.15 4.97 2.93v2c0.66 0.248 1.32 0.495 2 0.75 3.04 1.27 5.92 2.72 8.84 4.25 10.5 4.85 26.1 5.28 37.3 2.02 2.81-1.16 5.33-2.41 7.9-4.02 1.64-0.959 1.64-0.959 3.31-1.94 5.19-3.98 9.45-7.27 12.7-13.1h2l0.621-2.55c0.404-1.64 0.404-1.64 0.816-3.32l0.809-3.3c0.754-2.82 0.754-2.82 1.75-4.82 0.232-2.71 0.419-5.41 0.562-8.12 0.0648-1.13 0.0648-1.13 0.131-2.29 0.106-1.86 0.207-3.73 0.307-5.59 1.71 1.28 3.37 2.62 5 4v2c0.893 0.266 1.79 0.531 2.71 0.805 3.14 1.14 5.28 2.4 7.98 4.32 5.11 3.35 10.4 5.82 16 8.19l2.41 1.02c22.6 9.28 46.4 8.33 68.8-0.647 20.4-8.76 36.8-22.2 45.9-42.8 1.85-4.63 3.04-9.15 3.83-14.1 0.359-1.86 0.359-1.86 1.36-2.86 0.101-2.35 0.14-4.68 0.133-7.04 9.57e-4 -0.712 0.00191-1.42 0.0029-2.16 6.82e-4 -1.51-0.00118-3.03-0.00534-4.54-0.00529-2.29-8.56e-5 -4.59 0.00635-6.88-6.62e-4 -1.47-0.00195-2.95-0.00391-4.42 0.00202-0.677 0.00405-1.35 0.00613-2.05-0.0167-3.48-0.227-6.84-0.71-10.3-0.429-3.63-0.429-3.63 0.571-5.63h-2c-0.696-2.79-1.38-5.58-2.06-8.38-0.199-0.794-0.398-1.59-0.604-2.41-1.45-5.99-1.45-5.99-0.334-8.22h-2c-2.9-14.7-2.11-26.1 6-39 0.735-1.33 1.46-2.66 2.19-4 1.54-2.54 2.74-3.99 4.81-6 1.18-1.3 2.34-2.62 3.5-3.94 0.588-0.669 1.18-1.34 1.78-2.03 3.68-3.97 3.68-3.97 4.72-9.04-4.14 0.609-7.29 2.11-11 4h-2c-0.33 0.99-0.66 1.98-1 3-1.32 0.702-2.65 1.37-4 2-1.01 0.987-2.01 1.99-3 3-1.24 1.07-2.5 2.13-3.75 3.19-6.05 5.28-10.9 11.1-15.2 17.8-0.473 0.469-0.946 0.938-1.43 1.42-6.18 6.23-9.84 14.8-13.6 22.6h-2c-0.247 1.05-0.495 2.1-0.75 3.19-0.925 3.75-2.07 7.39-3.25 11.1-1.34 4.27-2.35 8.39-3 12.8-1.62 10.7-5.03 21.7-12.6 29.7-1.1 0.791-2.23 1.54-3.38 2.25-0.724 0.465-1.45 0.931-2.2 1.41-9.12 5.01-19.8 5.1-29.9 2.93-12.5-4.5-20-13.9-25.6-25.4-3.12-6.8-3.72-11.9-3.71-19.4 8.86e-4 -1.07 0.00177-2.15 0.00269-3.26 0.153-10.3 1.91-18.4 7.37-27.2 0.681-1.39 0.681-1.39 1.38-2.81 5.69-11.2 13.7-21.2 22.1-30.4 1.01-1.13 1.99-2.29 2.94-3.48 24-29.9 67.3-48.4 103-59.6 1.71-0.55 3.42-1.13 5.12-1.71 29-9.6 69.5-17 99.8-10.9 0.0489-1.91 0.0489-1.91-1-4-2.39-1.38-4.6-2.49-7.12-3.56-0.652-0.291-1.3-0.581-1.98-0.881-1.96-0.869-3.93-1.71-5.9-2.56-1.19-0.525-2.37-1.05-3.59-1.59-3.23-1.34-6.43-2.42-9.78-3.41-3.77-1.13-7.53-2.28-11.2-3.56-9.88-3.3-19.6-5.21-29.9-6.56-2.5-0.333-5-0.669-7.5-1.01-1.64-0.215-1.64-0.215-3.31-0.434-2.62-0.433-2.62-0.433-4.62-1.43-2.02-0.257-4.05-0.465-6.08-0.648-1.24-0.119-2.49-0.237-3.77-0.359-2.6-0.241-5.2-0.478-7.8-0.711-23.8-2.29-23.8-2.29-30-8.62-3.42-4.34-4.57-8.15-4.3-13.6 1.07-7.35 4.44-12 10.1-16.7 10.6-7.66 21.3-11.3 33.9-14.4 0.633-0.178 1.27-0.356 1.92-0.539 4.54-1 9.27-0.907 13.9-1.09 1.15-0.0443 2.29-0.0886 3.47-0.134 7.92-0.258 15.8-0.214 23.7 0.134 0.978 0.043 1.96 0.086 2.96 0.13 6.76 0.355 6.76 0.355 9.04 1.49 1.77 0.313 3.54 0.583 5.32 0.832 1.63 0.235 1.63 0.235 3.29 0.474 1.74 0.251 1.74 0.251 3.52 0.507 10.2 1.52 20 3.29 29.9 6.19 0.792 0.225 1.58 0.45 2.4 0.682 33.5 9.6 65.1 26.4 94.7 44.6 2.27 1.36 4.51 2.61 6.9 3.74-3.57-12.7-10.9-24-17.6-35.3-0.794-1.36-0.794-1.36-1.6-2.75-3.67-6.19-7.63-12.1-11.8-17.9-0.71-1-1.42-2-2.15-3.03-9.76-13.6-9.76-13.6-21.7-25.3-2.45-1.99-4.46-4.15-6.5-6.56-3.55-4.15-7.42-7.65-11.6-11.1-0.855-0.708-1.71-1.42-2.59-2.14-5.37-4.44-5.37-4.44-11.4-7.86v-2c-0.969-0.268-1.94-0.536-2.94-0.812-1.01-0.392-2.02-0.784-3.06-1.19-0.33-0.99-0.66-1.98-1-3-2.93-1.17-2.93-1.17-6-2l-2-1v-2c-0.849-0.25-1.7-0.5-2.57-0.758-3.68-1.33-6.9-3.11-10.2-5.12-4.5-2.64-8.98-5.05-13.8-7.07-3.11-1.37-6.11-2.94-9.14-4.49-4.59-2.34-9.17-4.38-14-6.19-2.08-0.791-4.17-1.58-6.25-2.38-0.886-0.329-1.77-0.657-2.68-0.996-8.58-3.66-15.2-11.1-19.1-19.6-2.5-6.78-1.81-11.7 1.07-18.3 1.56-3.3 2.99-5.68 5.69-8.12 0.768-0.808 1.54-1.62 2.33-2.45 7.14-6.81 14.7-10.2 24.4-10.2 6.11 0.177 11.7 0.941 17.2 3.62 1.38 0.655 1.38 0.655 2.79 1.32 3.59 1.87 6.95 3.97 10.3 6.18 0.607 0.391 1.21 0.781 1.84 1.18 6.78 4.39 6.78 4.39 9.04 6.32v2c0.823 0.0918 0.823 0.0918 1.66 0.186 3.31 1.15 5.33 3.4 7.73 5.85 0.51 0.51 1.02 1.02 1.55 1.55 1.08 1.08 2.16 2.17 3.23 3.26 1.62 1.64 3.25 3.27 4.88 4.89 5.2 5.22 10.1 10.5 14.5 16.4 1.95 2.58 4.1 4.92 6.31 7.27 7.77 8.45 14.8 17.4 21.8 26.5 2.06 2.69 4.14 5.36 6.23 8.02 1.89 2.42 3.62 4.81 5.31 7.38 1.75 2.6 3.54 4.55 5.81 6.69 4.69 4.46 4.69 4.46 6.38 7.38 3.22 5.21 8 9.12 12.6 13.1 3.43 2.95 6.3 6.14 9.21 9.59 2.42 2.67 5.12 4.92 7.87 7.24 1.9 1.72 3.48 3.5 5.1 5.48 2.33 2.84 4.58 4.46 7.81 6.25 2.31 2.06 2.31 2.06 4 4v2c0.568 0.251 1.14 0.503 1.72 0.762 2.59 1.41 4.53 3.07 6.71 5.05 0.793 0.715 1.59 1.43 2.4 2.17 1.6 1.5 3.15 3.06 4.66 4.64 2.98 2.83 6.22 4.89 9.71 7.04 0.592 0.44 1.18 0.879 1.79 1.33v2c0.99 0.33 1.98 0.66 3 1 1.33 1.33 2.67 2.67 4 4 1.3 0.995 2.61 1.97 3.94 2.94 3.33 2.44 6.14 5.14 9.06 8.06 0.928 0.557 1.86 1.11 2.81 1.69 0.722 0.433 1.44 0.866 2.19 1.31v2c0.99 0.33 1.98 0.66 3 1 1.35 1.31 2.69 2.65 4 4 0.99 0.66 1.98 1.32 3 2v2c1.65 0.66 3.3 1.32 5 2v2c0.681 0.165 1.36 0.33 2.06 0.5 3.68 1.88 5.55 4.38 8.16 7.52 2.36 2.62 4.73 4.23 7.78 5.98h1c-0.117-1.35-0.244-2.71-0.375-4.06-0.0696-0.754-0.139-1.51-0.211-2.29-0.379-2.79-0.379-2.79-1.36-5.95-1.32-4.62-2.11-9.27-2.91-14-0.634-3.58-1.42-6.51-3.14-9.7-0.633-1.99-1.23-3.99-1.81-6-8.59-28.4-24.2-56.3-41.8-80.1-1.35-1.84-2.67-3.7-3.98-5.56-8.14-11.6-16.9-22.6-26-33.5-2.3-2.75-4.57-5.52-6.83-8.3-3.35-4.11-6.75-8.15-10.2-12.2-3.66-4.3-7.21-8.65-10.6-13.1-2.03-2.6-4.13-5.14-6.24-7.68-10-12.3-21.6-27.6-20.8-44.4 1.14-8.59 3.64-15.9 8.29-23.2 0.353-0.611 0.706-1.22 1.07-1.85 2.4-3.98 2.4-3.98 5.12-4.84 0.598-0.103 1.2-0.206 1.81-0.312 0.33-0.99 0.66-1.98 1-3 11.8-11.5 36.1-10.5 48.9-1.44zm-63.9 43.4 1 2zm-159 30 1 2zm-64 157 1 2zm258 151 1 2zm146 12c0.488 4.78 1.68 7.43 4.62 11.2 5.67 7.47 11.2 15.4 15.4 23.8h2c0.404 1.05 0.404 1.05 0.816 2.12 1.26 3.07 2.66 6.03 4.12 9.01 0.756 1.55 0.756 1.55 1.53 3.13 1.32 2.67 1.32 2.67 2.99 4.15 2.47 2.54 3.77 5.74 5.29 8.9 0.707 1.44 1.41 2.89 2.12 4.33 0.354 0.728 0.709 1.46 1.07 2.21 0.992 2.02 2 4.03 3.03 6.04 0.31 0.61 0.621 1.22 0.94 1.85 0.847 1.66 1.7 3.32 2.54 4.98 1.74 3.7 3.15 7.45 4.54 11.3 0.449 1.17 0.897 2.34 1.36 3.54 7.17 18.8 13.7 37.9 17.9 57.5 0.665 2.95 0.665 2.95 1.7 5.79 1.22 3.78 1.9 7.55 2.57 11.5 0.439 4.73 0.439 4.73 2.44 8.69 0.286 1.75 0.515 3.51 0.719 5.28 0.128 1.07 0.255 2.14 0.387 3.24 0.13 1.13 0.26 2.25 0.395 3.42 0.257 2.22 0.517 4.44 0.781 6.65 0.171 1.48 0.171 1.48 0.346 3 0.248 2.42 0.248 2.42 1.37 4.41 0.526 4.84 0.772 9.7 1.06 14.6 0.0442 0.735 0.0884 1.47 0.134 2.23 2.03 34.6 1.13 69.3-3.63 104-0.155 1.13-0.155 1.13-0.313 2.28-1.12 7.99-2.49 15.8-4.56 23.6-1.02 3.9-1.78 7.83-2.57 11.8-1.77 8.6-3.98 17-6.43 25.5-0.761 2.64-1.5 5.29-2.24 7.94-0.526 1.87-1.05 3.74-1.58 5.61-0.242 0.865-0.483 1.73-0.732 2.62-1.27 4.48-2.68 8.83-4.36 13.2-1.88 5.01-3.45 10.1-5.09 15.2-1.9 5.8-4.14 11.3-6.69 16.9-1.63 3.76-3.22 7.53-4.8 11.3-6.04 14.5-12.5 28.7-20 42.5-1.4 2.57-2.79 5.14-4.18 7.71-1.05 1.94-2.11 3.89-3.16 5.83-0.491 0.907-0.981 1.81-1.49 2.75-2.88 5.29-5.87 10.5-9 15.6-1.47 2.42-2.9 4.86-4.33 7.3-2.11 3.55-4.39 6.9-6.81 10.2-2.52 3.52-3.97 6.6-5.25 10.8-0.99 0.33-1.98 0.66-3 1-1.77 2.38-1.77 2.38-3.44 5.25-2.31 3.82-4.71 7.31-7.56 10.8-2.31 2.84-4.55 5.72-6.75 8.66-8.78 11.7-17.7 23.2-27.3 34.3-0.872 1.04-1.74 2.08-2.61 3.13-13.4 16.1-13.4 16.1-20.7 23-1.96 1.65-1.96 1.65-1.73 3.83h-2c-1.57 1.59-1.57 1.59-3.19 3.62-2.3 2.71-4.56 5.13-7.31 7.38-2.52 2.06-4.63 4.22-6.72 6.71-3.66 4.24-7.6 8.05-11.7 11.8-0.665 0.621-1.33 1.24-2.01 1.88-4.6 4.28-9.3 8.44-14 12.6-0.55 0.478-1.1 0.956-1.67 1.45-18.4 15.9-37.2 31.1-57.2 45-1.52 1.06-3.04 2.13-4.56 3.2-23.8 16.7-48.5 31.9-74 45.8-1.06 0.583-2.11 1.17-3.2 1.77-2.06 1.13-4.12 2.25-6.19 3.36-0.927 0.512-1.85 1.02-2.81 1.55-0.825 0.447-1.65 0.895-2.5 1.36-2.06 1.32-2.06 1.32-2.67 3.63-0.0744 0.602-0.149 1.2-0.226 1.82 4.04 1.12 6.38 0.849 10.3-0.59 1.52-0.551 1.52-0.551 3.07-1.11 1.08-0.407 2.16-0.815 3.27-1.23 1.13-0.418 2.25-0.836 3.42-1.27 3.33-1.25 6.65-2.51 9.96-3.8 0.818-0.316 1.64-0.632 2.48-0.958 5.58-2.19 11.1-4.58 16.5-7.04 0.581-0.262 1.16-0.524 1.76-0.794 19.9-8.98 39.2-18.6 58.2-29.5 2.69-1.53 5.4-3.04 8.11-4.53 21-11.7 40.7-25.9 60-40.2 0.587-0.436 1.17-0.871 1.78-1.32 6.96-5.19 13.6-10.6 20.2-16.3 4.33-3.76 8.79-7.34 13.4-10.8 0.559-0.503 1.12-1.01 1.7-1.52v-2c0.557-0.248 1.11-0.495 1.69-0.75 2.74-1.48 4.99-3.18 7.31-5.25v-2c0.584-0.26 1.17-0.519 1.77-0.787 2.39-1.3 3.98-2.71 5.9-4.62 0.664-0.661 1.33-1.32 2.01-2 0.682-0.69 1.36-1.38 2.07-2.09 0.697-0.69 1.39-1.38 2.11-2.09 0.659-0.661 1.32-1.32 2-2 0.904-0.908 0.904-0.908 1.83-1.83 1.53-1.49 1.53-1.49 1.31-3.57 0.99-0.33 1.98-0.66 3-1 1.54-1.52 1.54-1.52 3.06-3.44 2.87-3.4 5.89-6.56 9.06-9.69 3.52-3.49 6.9-6.91 9.88-10.9v-2c0.576-0.231 1.15-0.461 1.75-0.699 2.83-1.63 4.3-3.54 6.32-6.11 0.786-0.989 1.57-1.98 2.38-3 0.415-0.523 0.831-1.05 1.26-1.59 1.74-2.16 3.54-4.26 5.35-6.36 9.08-10.6 17.3-21.5 24.9-33.2 0.735-1.06 1.47-2.13 2.23-3.22 1.95-2.51 1.95-2.51 1.77-4.78h2c1.59-2.1 1.59-2.1 3.19-4.81 0.619-1 1.24-2 1.88-3.04 0.639-1.04 1.28-2.08 1.94-3.15 1.23-1.92 2.46-3.84 3.69-5.75 4.92-6.7 4.92-6.7 7.31-14.2h2c1.17-2.29 2.34-4.58 3.5-6.88 0.501-0.976 0.501-0.976 1.01-1.97 1.86-3.4 1.86-3.4 2.49-7.15h2c0.557-1.19 1.11-2.37 1.69-3.59 0.77-1.64 1.54-3.27 2.31-4.91 0.406-0.862 0.813-1.72 1.23-2.61 2.57-5.42 5.23-10.8 7.96-16.1 3.77-7.41 6.81-15 9.81-22.8 0.847-2.07 1.7-4.13 2.56-6.19 0.402-0.962 0.804-1.92 1.22-2.91 0.831-1.98 1.66-3.95 2.5-5.92 4.15-9.84 7.75-19.7 10.7-30 1.69-5.79 3.52-11.5 5.5-17.2 2.21-6.42 3.59-12.8 4.82-19.4 0.716-3.52 1.77-6.74 3-10.1 1.15-3.77 1.63-7.64 2.22-11.5 0.524-3.04 1.5-5.8 2.47-8.72 0.32-2.38 0.558-4.75 0.754-7.14 0.246-1.86 0.246-1.86 1.25-2.86 0.663-3.47 1.05-6.99 1.5-10.5 0.135-1.03 0.269-2.07 0.408-3.13 0.887-7.07 1.52-14.1 1.8-21.2 0.122-2.96 0.346-5.31 1.29-8.14 0.091-2.57 0.126-5.11 0.114-7.68 2.19e-4 -1.17 2.19e-4 -1.17 4.43e-4 -2.37-6.97e-4 -2.58-0.00848-5.16-0.0163-7.74-0.00187-1.79-0.00329-3.58-0.00429-5.37-0.00382-4.71-0.0136-9.42-0.0247-14.1-0.0102-4.81-0.0148-9.61-0.0198-14.4-0.0107-9.43-0.0278-18.9-0.0488-28.3h-1c-0.105-0.816-0.211-1.63-0.32-2.47-0.403-3.09-0.812-6.17-1.22-9.26-0.262-1.97-0.516-3.94-0.77-5.91-0.951-7.07-2.19-13.9-4.02-20.8-0.802-3.08-1.37-6.17-1.85-9.31-0.238-1.51-0.238-1.51-0.48-3.05-0.164-1.09-0.164-1.09-0.332-2.2h-2c-0.11-0.632-0.219-1.26-0.332-1.91-1.37-7.74-2.99-15.4-4.67-23.1h-2c-0.144-1.05-0.289-2.1-0.438-3.19-0.438-2.97-0.941-5.88-1.56-8.81h-2c-0.112-0.822-0.112-0.822-0.227-1.66-2.06-12.4-7.68-23.6-13.7-34.5-2.19-3.99-4.2-8.06-6.2-12.1-12.2-24.7-29.3-47.3-47.9-67.5-1.9-2.08-3.72-4.21-5.54-6.36-2.91-3.35-6.06-6.22-9.45-9.07-2.64-2.31-4.99-4.86-7.34-7.46-1.82-1.7-1.82-1.7-5.64-1.29zm-1252 6 1 2zm871 55v7h1v-7h-1zm-473 74 1 3zm-1 7 1 2zm762 46 1 2zm-1254 14v8h1v-8h-1zm492 14 1 3zm972 6 1 2zm-207 2v6h1v-6h-1zm97 1v62h1v-62h-1zm-99 27 1 2zm212 18 1 2zm-214 4 1 2zm214 0v6h1v-6h-1zm-1468 5v5h1v-5h-1zm1 11v11h1v-11h-1zm1353 7 1 4zm112 16v7h1v-7h-1zm-1461 12 1 3zm1456 29 1 2z" fill="#FBFCFE"/>
<path transform="translate(715 155)" d="m0 0c0.885-0.00509 1.77-0.0102 2.68-0.0154 2.98-0.0158 5.97-0.0243 8.95-0.0327 2.13-0.00953 4.26-0.0194 6.4-0.0296 7.01-0.0314 14-0.0517 21-0.0702 1.19-0.0033 2.38-0.00659 3.61-0.00999 11.2-0.0308 22.5-0.0575 33.7-0.0744 14.4-0.0219 28.8-0.0639 43.2-0.133 10.1-0.0472 20.2-0.0715 30.3-0.0788 6.04-0.00497 12.1-0.0202 18.1-0.0597 5.68-0.0367 11.4-0.0453 17-0.032 2.09-5.42e-5 4.18-0.0104 6.26-0.0318 2.85-0.0275 5.69-0.0183 8.53 4.35e-4 0.831-0.0168 1.66-0.0336 2.52-0.0509 2.31 0.0381 2.31 0.0381 6.19 0.779 4 4.59 4 4.59 4 8 0.66 0.33 1.32 0.66 2 1 1.11 1.93 1.11 1.93 2.31 4.44 0.659 1.36 0.659 1.36 1.33 2.75 0.447 0.929 0.895 1.86 1.36 2.82 0.83 1.67 1.66 3.33 2.5 5 4.94 9.87 9.88 19.7 14.8 29.6 0.619 1.24 0.619 1.24 1.25 2.5 1.09 2.18 2.17 4.36 3.25 6.54 3.64 7.34 7.37 14.6 11.2 21.8 3.45 6.44 6.7 13 9.94 19.5 0.707 1.42 1.42 2.83 2.12 4.25 0.306 0.612 0.611 1.22 0.926 1.86 0.681 1.36 1.37 2.72 2.05 4.07 2.25 4.45 4.41 8.93 6.49 13.5 2.46 5.36 4.96 10.5 8.23 15.5 1.88 3 3.37 6.19 4.92 9.37 1.22 2.45 2.53 4.82 3.88 7.2 5.38 9.58 5.38 9.58 5.38 14.3-0.66-0.66-1.32-1.32-2-2-2.05-0.75-2.05-0.75-4.45-1.33-0.904-0.239-1.81-0.477-2.74-0.723-0.97-0.25-1.94-0.5-2.94-0.757-6.75-1.78-13.4-3.63-20.1-5.81-7.99-2.58-16.1-4.29-24.3-5.89-2.44-0.482-4.86-0.997-7.29-1.52-31.2-6.56-64.2-8.32-96-6.22-2.02 0.131-4.04 0.25-6.07 0.369-6.22 0.399-12.2 0.9-18.2 2.42-2.87 0.703-5.78 1.04-8.71 1.4-23.7 3.26-46.1 13.2-66.6 25.2-1.6 0.812-1.6 0.812-3.6 0.812-0.33 0.99-0.66 1.98-1 3-2.43 1.82-2.43 1.82-5.44 3.69-0.989 0.623-1.98 1.25-3 1.89-2.57 1.43-2.57 1.43-4.57 1.43-0.33 0.99-0.66 1.98-1 3-1.78 1.72-1.78 1.72-3.94 3.5-2.57 2.13-4.19 3.68-6.06 6.5h-2c-0.247 0.722-0.495 1.44-0.75 2.19-1.25 2.81-1.25 2.81-3.14 5.14-5.9 7.48-11.9 19.3-12.2 28.9-0.109 3.76-0.35 6.29-1.91 9.74-4.87 4.22-11.1 6.55-17 9-1.65 0.749-3.29 1.5-4.94 2.25-0.672 0.286-1.34 0.572-2.04 0.867-8.84 3.85-17.5 8.47-25.7 13.6-2.3 1.32-2.3 1.32-4.3 1.32-0.33 0.99-0.66 1.98-1 3-2.44 1.61-2.44 1.61-5.56 3.31-4.61 2.58-8.81 5.3-12.9 8.62-1.52 1.07-1.52 1.07-3.52 1.07-0.33 0.99-0.66 1.98-1 3-1.32 0.685-2.66 1.35-4 2-1.36 1.31-2.69 2.65-4 4-1.64 1.36-3.32 2.69-5 4-0.743 0.597-1.49 1.19-2.25 1.81-0.804 0.641-1.61 1.28-2.44 1.94-0.767 0.614-1.53 1.23-2.32 1.86-1.99 1.39-1.99 1.39-3.99 1.39-0.268 0.639-0.536 1.28-0.812 1.94-1.19 2.06-1.19 2.06-4.19 3.06-0.371 0.866-0.371 0.866-0.75 1.75-2.02 3.63-4.51 5.62-8.25 7.25-5.16 0.749-10.3 0.667-15.5 0.621-1.6 0.00433-3.19 0.0108-4.79 0.0194-4.38 0.017-8.76 0.00281-13.1-0.0165-4.73-0.0154-9.45-0.00203-14.2 0.00774-9.26 0.0145-18.5 0.00229-27.8-0.0191-10.8-0.024-21.5-0.0223-32.3-0.0197-19.2 0.00369-38.4-0.0171-57.6-0.0513-18.7-0.0331-37.3-0.0473-56-0.041-20.3 0.00676-40.6 0.00432-60.9-0.0154-1.07-0.00104-2.15-0.00208-3.25-0.00315-2.16-0.00209-4.31-0.0042-6.47-0.00633-7.52-0.00691-15-0.00756-22.6-0.00612-9.15 0.00144-18.3-0.00819-27.5-0.0319-4.67-0.0119-9.35-0.019-14-0.0132-4.27 0.00514-8.54-0.00342-12.8-0.0233-1.55-0.00477-3.1-0.0044-4.65 0.00141-2.1 0.00711-4.19-0.00398-6.29-0.0199-1.17-0.00157-2.34-0.00314-3.54-0.00476-0.896-0.125-1.79-0.25-2.72-0.378-2.35-3.52-2.25-4.95-2.24-9.11-0.00308-1.26-0.00615-2.53-0.00932-3.83 0.00691-1.39 0.0142-2.77 0.0218-4.16 0.00119-1.43 0.00164-2.86 0.00139-4.3 0.00157-3.01 0.00986-6.03 0.0233-9.04 0.0168-3.81 0.0207-7.62 0.0202-11.4 0.00104-44.5 0.00104-44.5 3.62-54.1 0.254-0.717 0.507-1.43 0.769-2.17 3.6-9.7 8.22-21.6 15.8-28.9 0.823-1.2 1.64-2.41 2.44-3.62 11.6-15.6 32.1-23.5 50.5-26.8 2.93-0.419 2.93-0.419 5.02-1.58 1.89-0.0996 3.78-0.134 5.67-0.139 1.82-0.00821 1.82-0.00821 3.67-0.0166 1.36-0.00108 2.72-0.00206 4.07-0.00296 1.43-0.00456 2.87-0.00956 4.3-0.015 3.95-0.0136 7.9-0.021 11.9-0.0274 4.26-0.00799 8.51-0.0217 12.8-0.0347 7.38-0.0218 14.8-0.0399 22.1-0.0556 10.7-0.0227 21.3-0.0508 32-0.0803 17.3-0.0477 34.6-0.091 51.9-0.131 16.8-0.0393 33.6-0.0808 50.5-0.125 1.04-0.00272 2.07-0.00545 3.14-0.00826 5.2-0.0137 10.4-0.0274 15.6-0.0411 43.1-0.114 86.3-0.221 129-0.323 0.273-0.616 0.545-1.23 0.826-1.87 0.359-0.809 0.718-1.62 1.09-2.45 0.355-0.801 0.71-1.6 1.08-2.43 1.17-2.61 2.39-5.19 3.64-7.76 0.709-1.46 0.709-1.46 1.43-2.96 0.496-1.02 0.991-2.05 1.5-3.1 4.69-9.71 9.25-19.5 13.7-29.3 2.43-5.35 4.95-10.6 7.63-15.9 1.16-2.39 2.14-4.82 3.11-7.29 0.753-1.57 1.52-3.13 2.31-4.69 0.44-0.871 0.879-1.74 1.33-2.64 0.872-1.72 1.74-3.44 2.62-5.16 2.17-4.3 4.26-8.62 6.24-13 2.72-6.03 5.68-11.9 8.68-17.8 2.83-5.61 5.51-11.3 8.15-17 2.77-5.96 5.69-11.8 8.67-17.7h2c0.273-0.888 0.273-0.888 0.551-1.79 1.4-4.39 2.73-8.42 5.45-12.2 3.26-1.63 6.87-1.16 10.5-1.16zm-284 228c-6.66 9.18-8.7 18.1-7.47 29.3 1.07 6.19 3.54 9.1 8.47 12.7l2.38 2.56c6.97 6.47 15.4 6.58 24.6 6.44 6.64-0.993 12.2-4.34 17-9 1.66-2.28 2.76-4.43 4-7 0.359-0.636 0.719-1.27 1.09-1.93 1.05-2.38 1.14-4.03 1.11-6.62-0.00967-1.27-0.00967-1.27-0.0195-2.56-0.0168-0.873-0.0335-1.75-0.0508-2.64-0.00902-0.888-0.018-1.78-0.0273-2.69-0.0235-2.19-0.0564-4.37-0.0977-6.56h-2c-0.0825-0.701-0.165-1.4-0.25-2.12-1.84-7.05-6.72-11.2-12.8-14.9-11.9-5.74-26.2-4.06-36 5zm-126 5c-0.175 2.94-0.231 5.79-0.195 8.73 0.00201 0.765 0.00403 1.53 0.0061 2.32 0.0105 2.86 0.0384 5.72 0.0642 8.58 0.0412 6.39 0.0825 12.8 0.125 19.4h77c0.0206-6.58 0.0412-13.2 0.0625-19.9 0.0091-2.08 0.0182-4.16 0.0276-6.3 0.00292-1.64 0.00547-3.28 0.00757-4.91 0.00512-0.859 0.0102-1.72 0.0155-2.6 3.1e-4 -2.08-0.0507-4.16-0.113-6.25-1.91-1.91-5.35-1.14-7.87-1.15-0.719-0.00336-1.44-0.00672-2.18-0.0102-2.39-0.00954-4.77-0.0115-7.16-0.0125-1.65-0.00321-3.31-0.00657-4.96-0.0101-3.47-6e-3 -6.94-0.00784-10.4-0.00725-4.45 1.02e-4 -8.91-0.0136-13.4-0.0308-3.42-0.0111-6.83-0.0131-10.2-0.0126-1.64-0.00118-3.28-0.00562-4.93-0.0133-2.29-0.00976-4.59-0.00694-6.88-8.95e-4 -1.31-0.00143-2.61-0.00285-3.96-0.00432-3.15-0.0744-3.15-0.0744-5.04 2.25zm-104 24v6h1v-6h-1z" fill="#FBFCFE"/>
<path transform="translate(202,520)" d="m0 0c18.6-0.0233 37.3-0.041 55.9-0.0518 8.65-0.00516 17.3-0.0122 25.9-0.0236 7.54-0.00995 15.1-0.0164 22.6-0.0186 3.99-0.00131 7.98-0.00439 12-0.0116 3.75-0.00676 7.51-0.00889 11.3-0.00738 1.38-2.76e-4 2.76-0.00228 4.14-0.0061 1.88-0.00494 3.76-0.00319 5.63-0.00105 1.05-9.22e-4 2.11-0.00184 3.19-0.00279 2.36 0.123 2.36 0.123 3.36 1.12 0.0981 2.24 0.124 4.49 0.123 6.73 0.00115 0.715 0.00231 1.43 0.0035 2.17 0.00267 2.43-0.00186 4.85-0.00629 7.28 4.36e-4 1.75 0.00131 3.49 0.00259 5.24 0.00225 4.82-0.00178 9.64-0.00678 14.5-0.0043 5.19-0.00286 10.4-0.0021 15.6 5.26e-4 9-0.00262 18-0.00824 27-0.00811 13-0.0107 26-0.012 39-0.00219 21.1-0.00885 42.2-0.0183 63.3-0.00917 20.5-0.0163 41-0.0205 61.5-2.63e-4 1.26-5.25e-4 2.53-7.96e-4 3.83-0.0013 6.34-0.00257 12.7-0.00381 19-0.0104 52.6-0.0281 105-0.0503 158 9.57 0.33 19.1 0.66 29 1-0.00138-3.26-0.00138-3.26-0.00279-6.58-0.0217-51.5-0.0381-103-0.0483-155-0.00125-6.34-0.00255-12.7-0.00387-19-3.93e-4 -1.89-3.93e-4 -1.89-7.95e-4 -3.82-0.00436-20.5-0.0122-40.9-0.0214-61.4-0.00934-21-0.0149-41.9-0.0169-62.9-0.00138-13-0.00573-25.9-0.0138-38.9-0.00527-8.87-0.00689-17.7-0.00558-26.6 6.43e-4 -5.12-3.74e-4 -10.2-0.0057-15.4-0.00484-4.68-0.00513-9.37-0.00169-14.1 4.25e-4 -1.7-8.68e-4 -3.4-0.00398-5.1-0.00397-2.3-0.00188-4.6 0.00184-6.9-3.8e-4 -1.28-7.59e-4 -2.56-0.00115-3.88 0.124-2.95 0.124-2.95 1.12-4.95 17.3-0.172 34.5-0.339 51.8-0.5 1.91-0.0178 1.91-0.0178 3.86-0.036 32.3-0.3 64.6-0.566 96.8-0.527 0.705 8.56e-4 1.41 0.00171 2.14 0.00259 8.12 0.0107 16.2 0.0294 24.4 0.0599v2h-3c-0.124 0.577-0.247 1.15-0.375 1.75-1.4 5.05-3.94 7.56-7.62 11.2-2.97 3.69-5.71 7.51-8.25 11.5-0.578 0.825-1.16 1.65-1.75 2.5h-2c-0.371 1.33-0.371 1.33-0.75 2.69-1.25 3.31-1.25 3.31-2.96 5.38-3.23 4.13-5.67 8.62-8.23 13.2-0.769 1.36-0.769 1.36-1.55 2.74-1.51 2.67-3.01 5.34-4.51 8.01-0.456 0.808-0.913 1.62-1.38 2.45-3.94 7.01-7.31 14.2-10.6 21.6-0.442 0.978-0.885 1.96-1.34 2.96-1.48 3.28-2.95 6.56-4.41 9.85-0.472 1.05-0.944 2.1-1.43 3.18-2.76 6.25-4.98 12.4-6.82 19-0.45 1.4-0.907 2.79-1.38 4.19-0.246 0.733-0.492 1.47-0.746 2.22-0.675 1.99-1.36 3.98-2.04 5.96-2.99 8.79-5.63 17.6-7.84 26.6-0.174 0.711-0.348 1.42-0.528 2.15-2.32 9.59-4.05 19.1-5.08 28.9-0.395 2.96-0.395 2.96-1.39 3.96-0.305 2.32-0.55 4.62-0.754 6.95-0.0981 1.08-0.0981 1.08-0.198 2.18-0.211 2.37-0.413 4.75-0.61 7.12-0.0679 0.812-0.136 1.62-0.206 2.46-2.01 24.6-1.55 48.8 0.768 73.3 0.128 1.36 0.128 1.36 0.259 2.76 0.731 7.57 1.52 15.1 3.17 22.5 0.482 2.3 0.899 4.59 1.29 6.91 0.193 1.14 0.193 1.14 0.389 2.3 0.253 1.51 0.503 3.02 0.748 4.53 0.664 3.91 1.62 7.32 3.14 11 0.68 2.54 1.33 5.07 1.94 7.62 0.352 1.43 0.705 2.87 1.06 4.3l0.519 2.11c1.75 7.08 3.75 14 6.31 20.8 0.917 2.48 1.8 4.97 2.66 7.47 0.261 0.755 0.521 1.51 0.79 2.29 0.515 1.49 1.03 2.99 1.53 4.49 1.37 3.97 2.95 7.35 5.19 10.9 0.682 1.59 1.33 3.19 1.94 4.81 1.77 4.55 3.81 8.86 6.06 13.2 1.21 2.4 2.39 4.81 3.56 7.22 4.23 8.69 8.82 17.1 13.8 25.4 0.449 0.76 0.899 1.52 1.36 2.3 0.399 0.668 0.799 1.34 1.21 2.02 1.24 2.29 2.16 4.64 3.11 7.06-25.9-0.0372-51.9-0.0972-77.8-0.184-12-0.0397-24.1-0.0722-36.1-0.0871-10.5-0.013-21-0.0401-31.5-0.0836-5.56-0.0225-11.1-0.0383-16.7-0.0373-5.24 7.51e-4 -10.5-0.0174-15.7-0.0493-1.91-0.00844-3.82-0.0103-5.74-0.00463-11.8 0.0302-22.1-1.09-33.5-4.55-1.42-0.42-1.42-0.42-2.86-0.849-2.17-0.654-4.31-1.36-6.45-2.09-0.754-0.255-1.51-0.509-2.28-0.771-5.09-1.75-9.99-3.75-14.8-6.09-2.75-1.29-5.54-2.4-8.37-3.52-9.06-3.74-17.6-8.53-25.2-14.7-2.9-1.85-5.83-3.63-8.77-5.41-0.736-0.523-1.47-1.05-2.23-1.59v-2c-0.726-0.232-1.45-0.464-2.2-0.703-3.32-1.53-5.12-3.39-7.61-6.05-2.99-3.09-5.86-5.9-9.38-8.38-3.64-2.59-6.36-5.58-9.22-8.99-2.65-3.14-5.54-6.01-8.71-8.63-2.51-3-2.38-4.76-2.38-8.65-0.00491-0.642-0.00983-1.28-0.0149-1.95-0.0116-2.16 0.00536-4.32 0.0221-6.48-0.00246-1.56-0.00667-3.12-0.0125-4.68-0.0109-4.3 0.00321-8.59 0.0213-12.9 0.0152-4.63 0.00735-9.26 0.00231-13.9-0.00623-9.07 0.00878-18.1 0.0307-27.2 0.0247-10.6 0.0276-21.1 0.0294-31.7 0.00388-18.8 0.0264-37.7 0.0598-56.5 0.0324-18.3 0.0537-36.6 0.0615-54.9 4.85e-4 -1.13 9.71e-4 -2.25 0.00147-3.41 0.00193-4.53 0.00384-9.05 0.00572-13.6 0.00753-17.4 0.0232-34.8 0.0405-52.2 0.00524-5.26 0.0102-10.5 0.0144-15.8 0.00891-11.1 0.0207-22.1 0.0416-33.2 0.00861-4.58 0.0157-9.16 0.0185-13.7 0.00266-4.19 0.00993-8.38 0.021-12.6 0.00321-1.52 0.00474-3.04 0.00445-4.56-1.25e-4 -2.06 0.00582-4.11 0.0134-6.17 0.00179-1.14 0.00358-2.29 0.00542-3.47 0.129-2.79 0.129-2.79 1.13-5.79zm174 41v24h1v-24h-1zm0 129v12h1v-12h-1zm0 86v33h1v-33h-1zm0 164 1 2z" fill="#FBFCFE"/>
<path transform="translate(413 21.2)" d="m0 0c4.61 3.8 9.25 8.65 10 14.8 0.587 6.11-1.01 9.86-4 15h-2c-0.33 0.99-0.66 1.98-1 3-4.42 3.29-9.25 5.9-14.1 8.56-6.26 3.48-12.4 7.07-18.4 10.9-10.1 6.5-10.1 6.5-12.5 6.5v2c-5.75 3-5.75 3-8 3-0.33 0.99-0.66 1.98-1 3-2 0.667-4 1.33-6 2-0.33 0.99-0.66 1.98-1 3-2.55 1.68-2.55 1.68-5.75 3.44-4.08 2.25-7.65 4.6-11.2 7.56-1.55 1.1-3.11 2.19-4.69 3.25-0.767 0.521-1.53 1.04-2.32 1.58-1.99 1.17-1.99 1.17-3.99 1.17-0.33 0.99-0.66 1.98-1 3-1.32 0.702-2.65 1.37-4 2-0.413 0.418-0.825 0.835-1.25 1.27-2.43 2.41-5.15 4.42-7.88 6.48-1.17 0.893-2.34 1.79-3.5 2.68-1.12 0.857-2.25 1.71-3.37 2.57-1.69 1.29-3.38 2.58-5.06 3.88-0.672 0.513-1.34 1.03-2.04 1.55-2.11 1.74-3.99 3.63-5.9 5.57-1.09 0.992-2.2 1.97-3.31 2.94-1.03 0.899-1.03 0.899-2.09 1.82-2.04 1.76-4.09 3.52-6.14 5.27-13.4 11.5-13.4 11.5-25.1 24.7-1.39 1.31-1.39 1.31-3.43 1.75l-1.96 0.562c-1.07 1.89-1.07 1.89-2 4-1.7 1.61-3.5 3-5.34 4.44-1.83 1.73-2.55 3.32-3.66 5.56-1.66 1.7-1.66 1.7-3.5 3.25l-1.84 1.58c-1.66 1.17-1.66 1.17-3.66 1.17l-0.688 2.19c-1.58 3.38-3.52 5.37-6.31 7.81h-2c-0.229 0.723-0.459 1.45-0.695 2.19-1.56 3.36-3.49 5.22-6.18 7.75-4.19 4.03-4.19 4.03-7.62 8.69l-1.5 2.38h-2l-0.812 2.44c-0.392 0.846-0.784 1.69-1.19 2.56-0.99 0.33-1.98 0.66-3 1-0.716 1.31-1.38 2.64-2 4-0.867 1.12-1.77 2.22-2.71 3.28-0.782 0.894-0.782 0.894-1.58 1.81-0.813 0.917-0.813 0.917-1.64 1.85-3.43 3.88-6.45 7.57-9.06 12.1-0.997 1-2 2-3 3-0.827 1.05-1.63 2.13-2.41 3.21-0.432 0.604-0.865 1.21-1.31 1.83-0.443 0.625-0.886 1.25-1.34 1.89-0.447 0.621-0.893 1.24-1.35 1.88-2.11 2.97-4.1 5.84-5.58 9.18h-2c-0.268 0.726-0.536 1.45-0.812 2.2-1.17 2.77-2.53 5.11-4.19 7.61l-1.56 2.39c-0.474 0.592-0.949 1.18-1.44 1.79h-2c-0.268 0.969-0.536 1.94-0.812 2.94l-1.19 3.06c-0.99 0.33-1.98 0.66-3 1-1.17 2.93-1.17 2.93-2 6-0.33 0.66-0.66 1.32-1 2h-2c-0.227 0.825-0.454 1.65-0.688 2.5-1.6 4.26-3.84 7.7-6.31 11.5-5.11 7.97-9.72 16.1-14.1 24.5-2.65 5.1-5.38 10.1-8.2 15.2-4.3 7.68-8.28 15.4-11.6 23.5-1.14 2.75-1.97 4.72-4.1 6.85-0.675 1.5-1.29 3.02-1.88 4.56-1.58 4.08-3.27 8.07-5.1 12-2.02 4.71-3.72 9.54-5.46 14.4-7.5 20.8-7.5 20.8-16.6 26-5.81 1.91-13.7 2.59-19.3-0.0938-4.86-3.98-8.29-8.95-9.23-15.2 0.677-5 2.46-9.1 4.5-13.7 0.982-2.27 1.96-4.54 2.94-6.81l1.55-3.59c1.89-4.48 3.63-9.01 5.34-13.6 2.32-5.99 4.97-11.8 7.86-17.5 0.347-0.691 0.695-1.38 1.05-2.09 1.42-2.83 2.85-5.66 4.28-8.49 0.994-1.97 1.99-3.94 2.98-5.91 0.326-0.649 0.652-1.3 0.988-1.97 2.88-5.76 5.62-11.6 8.31-17.4 1.72-3.7 3.55-7.2 5.7-10.7 0.936-1.65 1.87-3.31 2.8-4.96 2.67-4.73 5.35-9.38 8.45-13.9 2.47-3.58 4.21-7.2 5.79-11.2 1.04-2.12 2.25-3.34 3.96-4.95 1.18-2.1 1.18-2.1 2-4h2c0.278-1.18 0.278-1.18 0.562-2.38 1.63-4.11 3.83-7.19 6.43-10.7 3.02-4.32 5.65-8.85 8.31-13.4 0.561-0.822 1.12-1.64 1.7-2.49h2c0.258-0.722 0.516-1.44 0.781-2.19 1.28-2.96 2.8-5.23 4.72-7.81 0.705-0.951 1.41-1.9 2.14-2.88 2.95-3.89 5.93-7.77 8.95-11.6 2.38-3.06 4.46-6.16 6.41-9.5 0.978-1.02 1.98-2.02 3-3 1.24-1.46 2.47-2.93 3.68-4.41 1.23-1.49 2.49-2.95 3.75-4.41 2.07-2.46 3.82-5.05 5.56-7.75 2.35-3.59 4.88-6.48 8-9.44 1.34-1.66 2.67-3.33 4-5l1.88-1.81c1.88-1.93 3.32-3.81 4.88-6 2.7-3.68 5.7-6.55 9.22-9.45 2.48-2.12 4.74-4.42 7.03-6.74l2.65-2.61c4.8-4.75 9.47-9.54 13.9-14.7 2.05-2.36 4.25-4.53 6.48-6.71l2.31-2.38c4-3.9 8.2-7.58 12.5-11.1 3.28-2.71 6.07-5.48 8.8-8.75 2.59-3.08 4.49-4.49 8.38-5.75 0.33-0.99 0.66-1.98 1-3 1.35-1.36 1.35-1.36 3.06-2.75 3.48-2.87 6.87-5.83 10.2-8.83 1.7-1.42 1.7-1.42 3.7-2.42 1.68-1.32 3.35-2.65 5-4 5.59-4.51 11.2-8.97 16.9-13.4 0.547-0.429 1.09-0.858 1.66-1.3 2.73-2.11 5.39-3.79 8.47-5.33 0.454-0.464 0.908-0.928 1.38-1.41 3.07-3.01 7.08-4.79 10.8-6.88 2.4-1.47 3.89-2.74 5.81-4.72 1.83-1.27 3.68-2.49 5.56-3.69 0.971-0.623 1.94-1.25 2.94-1.89 2.5-1.43 2.5-1.43 4.5-1.43v-2c0.895-0.496 1.79-0.993 2.71-1.5 7.39-4.14 14.4-8.52 21.3-13.5 8.8-5.99 17.9-11.6 27-17 0.838-0.531 1.68-1.06 2.54-1.61 5.44-3.08 12-3.48 17.5-0.195z" fill="#FCFDFF"/>
<path transform="translate(1215 24.7)" d="m0 0c0.732 0.451 1.46 0.902 2.22 1.37 1.45 0.896 2.9 1.8 4.35 2.7 3.41 2.12 6.92 4.09 10.4 6.08 0.525 0.382 1.05 0.763 1.59 1.16v2c0.969 0.335 0.969 0.335 1.96 0.676 4.15 1.8 7.89 4.14 11.7 6.51 0.807 0.497 1.61 0.994 2.45 1.51 5.77 3.58 11.4 7.32 16.9 11.3 1.67 1.18 3.34 2.36 5.01 3.54 5.75 4.07 11.4 8.25 16.9 12.6 3.67 2.85 7.37 5.64 11.1 8.41 6.18 4.6 12.3 9.29 18.2 14.2 2.57 2.11 5.17 4.16 7.8 6.2 21.7 16.9 41.2 36.1 60.7 55.6 2.76 2.76 5.53 5.52 8.3 8.27 2.17 2.16 4.34 4.32 6.5 6.49 1.02 1.02 2.04 2.03 3.06 3.05 5.64 5.6 10.9 11.3 15.8 17.6 2.06 2.65 4.27 5.07 6.56 7.52 6.61 7.19 12.8 14.7 18.6 22.6 2.31 3.09 4.74 6.09 7.16 9.1 1.32 1.88 1.32 1.88 1.32 3.88h2c1.16 1.51 1.16 1.51 2.5 3.69 2.62 4.08 5.46 7.93 8.44 11.8 4.9 6.29 9.52 12.7 13.9 19.4 1.52 2.26 3.05 4.51 4.61 6.74 6.24 8.93 12 18 17.5 27.4 0.779 1.33 1.56 2.65 2.34 3.98 5.66 9.73 5.66 9.73 5.66 12h2c0.303 0.617 0.606 1.23 0.918 1.87 3.67 7.42 7.54 14.6 11.9 21.7 5.9 9.78 10.8 20.1 15 30.7 1.13 2.69 2.38 5.26 3.71 7.86 2.08 4.07 3.82 8.19 5.48 12.4 2.58 6.53 5.61 12.8 8.81 19.1 2.43 4.99 3.44 8.68 3.46 14.3 0.0168 1.18 0.0335 2.37 0.0508 3.59-0.399 3.81-1.35 6.23-3.36 9.47-2.12 0.688-2.12 0.688-4 1-0.33 0.99-0.66 1.98-1 3-3.3 1.1-5.9 1.2-9.38 1.25-1.12 0.0258-2.24 0.0516-3.4 0.0781-6.27-0.638-9.65-4.42-13.5-9.04-4.74-6.4-7.26-13.6-9.66-21.1-1.11-3.4-2.33-6.75-3.6-10.1-0.393-1.04-0.786-2.08-1.19-3.15-1.21-2.83-2.65-5.28-4.25-7.91-1.45-2.85-2.82-5.73-4.19-8.62-0.552-1.14-0.552-1.14-1.12-2.31-0.347-0.735-0.695-1.47-1.05-2.23-0.316-0.665-0.632-1.33-0.958-2.01-0.687-1.82-0.687-1.82-0.687-4.82h-2c-0.268-0.62-0.536-1.24-0.812-1.88-3.39-7.67-7.25-15-11.3-22.4-0.797-1.47-1.58-2.95-2.36-4.43-7.17-13.5-15.3-26.5-23.6-39.3-0.964-1.5-1.93-3.01-2.89-4.51-14.8-23-30.8-45.2-48.3-66.2-1.76-2.33-1.76-2.33-1.76-4.33-0.99-0.33-1.98-0.66-3-1-1.73-1.93-1.73-1.93-3.62-4.44-3.45-4.44-7.08-8.62-10.9-12.8-3.52-3.92-6.94-7.94-10.3-12-2.1-2.48-4.18-4.84-6.52-7.11-1.64-1.71-1.64-1.71-1.64-3.71-1.32-0.66-2.64-1.32-4-2v-2c-0.639-0.268-1.28-0.536-1.94-0.812-2.06-1.19-2.06-1.19-3.06-4.19-0.557-0.268-1.11-0.536-1.69-0.812-3.35-1.72-5.94-4.27-8.31-7.19v-2c-0.557-0.227-1.11-0.454-1.69-0.688-4-2.27-6.85-4.93-8.31-9.31-0.552-0.275-1.1-0.549-1.67-0.832-3.37-1.69-5.87-4.28-8.58-6.86-1.17-1.09-2.33-2.18-3.5-3.27-0.841-0.788-0.841-0.788-1.7-1.59-6.56-6.12-13.5-11.9-20.8-17-0.572-0.469-1.14-0.938-1.73-1.42v-2c-1.21-0.402-1.21-0.402-2.44-0.812-0.846-0.392-1.69-0.784-2.56-1.19-0.33-0.99-0.66-1.98-1-3-1.66-0.686-3.33-1.35-5-2-1.77-1.34-3.5-2.74-5.19-4.19-4.49-3.79-9.1-7.17-14-10.4-0.594-0.465-1.19-0.931-1.8-1.41v-2c-0.733-0.267-1.47-0.534-2.22-0.809-2.74-1.17-4.82-2.5-7.21-4.25-3.06-2.2-6.14-4.32-9.32-6.33-0.639-0.402-1.28-0.804-1.94-1.22-1.27-0.796-2.55-1.59-3.83-2.37-1.52-0.955-3-1.98-4.47-3.02v-2c-0.875-0.249-1.75-0.498-2.65-0.754-3.52-1.31-5.93-2.91-8.91-5.18-2.72-2.06-5.32-3.99-8.28-5.69-0.713-0.452-1.43-0.905-2.16-1.37v-2c-0.949-0.309-1.9-0.619-2.88-0.938-3.12-1.06-3.12-1.06-5.12-2.06v-2c-0.784-0.206-1.57-0.412-2.38-0.625-4.93-1.87-9.18-4.56-13.6-7.38-0.815-0.512-1.63-1.02-2.47-1.55-6.31-4.07-12-8.08-14.5-15.4-0.271-5.93 1.05-11.5 5-16 9.99-7.92 19-6.97 29.4-0.312z" fill="#FCFDFF"/>
<path transform="translate(490 236)" d="m0 0c0.978 5.45e-4 1.96 0.00109 2.96 0.00165 1.12-0.00419 2.24-0.00839 3.4-0.0127 1.23 0.00562 2.47 0.0112 3.74 0.017 1.3-0.0019 2.59-0.0038 3.93-0.00575 3.56-0.00486 7.12 0.00282 10.7 0.013 3.72 0.00877 7.44 0.00702 11.2 0.00664 6.25 9.37e-4 12.5 0.00963 18.7 0.0233 7.23 0.0157 14.5 0.021 21.7 0.0203 6.94-6.09e-4 13.9 0.00449 20.8 0.0128 2.96 0.00354 5.92 0.00536 8.88 0.00589 4.13 0.00119 8.26 0.0109 12.4 0.0216 1.24-4.53e-4 2.47-9.06e-4 3.75-0.00137 1.12 0.00426 2.24 0.00853 3.39 0.0129 1.47 0.00251 1.47 0.00251 2.96 0.00508 2.19 0.129 2.19 0.129 3.19 1.13-0.358 5.77-2.13 9.74-4.94 14.6-2.28 4.07-4.4 8.01-6.06 12.4-1.59 3.37-3.29 6.69-5 10-0.587 1.14-1.17 2.29-1.78 3.47-0.915 1.75-0.915 1.75-1.85 3.53-0.855 1.64-0.855 1.64-1.73 3.31-1.65 2.69-1.65 2.69-4.65 4.69-3 0.187-5.9 0.255-8.9 0.23-0.922-9.57e-5 -1.84-1.91e-4 -2.79-2.9e-4 -3.08-0.00377-6.16-0.0229-9.24-0.0427-2.15-0.00691-4.31-0.0134-6.46-0.0195-27.2-0.107-54.4-0.638-81.6-1.17-1.2-2.4-1.13-3.92-1.15-6.6-0.00638-0.954-0.0128-1.91-0.0193-2.89-0.00111-1.03-0.00223-2.07-0.00337-3.13-0.00333-1.06-0.00666-2.12-0.0101-3.21-0.00507-2.24-0.00741-4.48-0.00725-6.72-0.00219-3.44-0.0203-6.87-0.0393-10.3-0.00293-2.17-0.00492-4.34-0.00586-6.52-0.00719-1.03-0.0144-2.07-0.0218-3.13 0.00308-0.954 0.00615-1.91 0.00932-2.89-0.00143-0.842-0.00285-1.68-0.00432-2.55 0.377-3.13 1.49-3.97 4.57-4.3z" fill="#FCFDFF"/>
<path transform="translate(1095 114)" d="m0 0c18.4 13 31.9 33.9 37.7 55.6 0.607 2.25 0.607 2.25 2.71 4.07 0.567 1.92 1.06 3.86 1.5 5.81 0.972 4.29 0.972 4.29 2.46 8.42 1.61 4.28 2.33 8.72 3.16 13.2 0.182 0.929 0.364 1.86 0.551 2.81 0.879 4.64 1.56 9 1.32 13.7-3.62-1.29-6.29-2.81-9.25-5.25-15-11.9-32.9-23.4-50.6-30.8-2.46-1.07-4.82-2.27-7.21-3.49-3.06-1.56-6.08-2.92-9.31-4.06-3.17-1.2-5.06-2.25-7.62-4.38-0.763-0.412-1.53-0.825-2.31-1.25-5.65-3.68-10.3-8.35-12.7-14.8-0.188-2.88-0.188-2.88 0-5h-2c-0.0816-1.9-0.139-3.79-0.188-5.69-0.0348-1.06-0.0696-2.11-0.105-3.2 0.331-3.52 1.32-5.22 3.29-8.11 0.591-1.26 1.16-2.53 1.69-3.81 0.433-1.05 0.866-2.1 1.31-3.19h2c0.186-0.722 0.371-1.44 0.562-2.19 3.04-5.94 8.48-8.04 14.5-10.1 9.76-2.74 19.5-3.61 28.6 1.63zm-50.6 22.7 1 2z" fill="#FCFDFF"/>
<path transform="translate(346,589)" d="m0 0h1v28h-1v-28z" fill="#000002"/>
<path transform="translate(1344,896)" d="m0 0h1v22h-1v-22z" fill="#000002"/>
<path transform="translate(200,824)" d="m0 0h1v22h-1v-22z" fill="#FCFDFF"/>
<path transform="translate(1579,793)" d="m0 0h1v21h-1v-21z" fill="#000002"/>
<path transform="translate(870,605)" d="m0 0h1v16h-1v-16z" fill="#FCFDFF"/>
<path transform="translate(200,884)" d="m0 0h1v14h-1v-14z" fill="#FCFDFF"/>
<path transform="translate(1463,858)" d="m0 0h1v7h-1v-7z" fill="#000002"/>
<path transform="translate(630,1093)" d="m0 0c0.99 0.33 1.98 0.66 3 1v2h-2c-0.33-0.99-0.66-1.98-1-3z" fill="#000002"/>
<path transform="translate(96,709)" d="m0 0h1v6h-1v-6z" fill="#000002"/>
<path transform="translate(467,791)" d="m0 0h1v5h-1v-5z" fill="#000002"/>
<path transform="translate(467,736)" d="m0 0h1v5h-1v-5z" fill="#000002"/>
<path transform="translate(804,622)" d="m0 0h1v5h-1v-5z" fill="#000002"/>
<path transform="translate(98,757)" d="m0 0 1 4z" fill="#000002"/>
<path transform="translate(1576,731)" d="m0 0 1 4z" fill="#000002"/>
<path transform="translate(469,714)" d="m0 0 1 4z" fill="#000002"/>
<path transform="translate(911,662)" d="m0 0 4 1z" fill="#000002"/>
<path transform="translate(1077,647)" d="m0 0 1 4z" fill="#000002"/>
<path transform="translate(766,414)" d="m0 0c0.66 0.66 1.32 1.32 2 2h-2v-2z" fill="#000002"/>
<path transform="translate(1074,110)" d="m0 0c3 1 3 1 3 1z" fill="#FCFDFF"/>
<path transform="translate(934,1165)" d="m0 0 2 1z" fill="#000002"/>
<path transform="translate(482,1113)" d="m0 0 2 1z" fill="#000002"/>
<path transform="translate(807,654)" d="m0 0 2 1z" fill="#000002"/>
<path transform="translate(802,407)" d="m0 0 2 1z" fill="#000002"/>
<path transform="translate(1143,219)" d="m0 0 2 1z" fill="#000002"/>
</svg>
